<svg width="351" height="285" viewBox="0 0 351 285" fill="none" xmlns="http://www.w3.org/2000/svg">
<path d="M347.5 157L320 179L292.5 157" stroke="#E4DCC9" stroke-width="7" stroke-linecap="round" stroke-linejoin="round"/>
<path d="M232.5 31.0001H261.611C277.052 31.0001 291.861 35.7979 302.78 44.338C313.699 52.8781 319.833 64.461 319.833 76.5386V179" stroke="#E4DCC9" stroke-width="7" stroke-linecap="round" stroke-linejoin="round"/>
<path d="M106.547 281.354L84.5474 253.854L106.547 226.354" stroke="#E4DCC9" stroke-width="7" stroke-linecap="round" stroke-linejoin="round"/>
<path d="M249.5 254C215.444 254 251.677 254 231.609 254C211.542 254 212.196 254 198.731 254L84.5 254" stroke="#E4DCC9" stroke-width="7" stroke-linecap="round" stroke-linejoin="round"/>
<path d="M99.5 31.0001H67.5C50.5261 31.0001 34.2475 35.7979 22.2452 44.338C10.2428 52.8781 3.5 64.461 3.5 76.5386V179" stroke="#E4DCC9" stroke-width="7" stroke-linecap="round" stroke-linejoin="round"/>
<path d="M85 58.5001L107 31.0001L85 3.50012" stroke="#E4DCC9" stroke-width="7" stroke-linecap="round" stroke-linejoin="round"/>
</svg>
