<svg width="103" height="103" viewBox="0 0 103 103" fill="none" xmlns="http://www.w3.org/2000/svg">
<path fill-rule="evenodd" clip-rule="evenodd" d="M51.5 0C23.072 0 0 23.072 0 51.5C0 79.928 23.072 103 51.5 103C79.928 103 103 79.928 103 51.5C103 23.072 79.928 0 51.5 0ZM74.881 71.3275L71.3275 74.881C70.8511 75.3584 70.2851 75.7372 69.6621 75.9956C69.0391 76.2541 68.3712 76.3871 67.6968 76.3871C67.0223 76.3871 66.3544 76.2541 65.7314 75.9956C65.1084 75.7372 64.5424 75.3584 64.066 74.881L48.3585 59.1735C42.0755 61.388 34.7625 60.049 29.7155 55.002C27.0062 52.277 25.2474 48.7512 24.7 44.9476C24.1527 41.1441 24.846 37.2654 26.677 33.887L38.7795 45.9895L46.041 38.728L33.887 26.6255C40.685 22.969 49.2855 23.9475 55.002 29.664C60.049 34.711 61.388 42.024 59.1735 48.307L74.881 64.0145C76.8895 66.023 76.8895 69.319 74.881 71.3275Z" fill="#14A54A"/>
</svg>
