<svg width="128" height="93" viewBox="0 0 128 93" fill="none" xmlns="http://www.w3.org/2000/svg">
<path d="M58.1818 93H32C23.1564 93 15.6121 89.9581 9.36727 83.8744C3.12242 77.7519 0 70.2925 0 61.4962C0 53.94 2.26909 47.1975 6.80727 41.2688C11.3842 35.34 17.3576 31.5619 24.7273 29.9344C27.1709 21.0219 32.0194 13.8144 39.2727 8.31187C46.5648 2.77062 54.8073 0 64 0C75.3649 0 84.9842 3.9525 92.8582 11.8575C100.771 19.7237 104.727 29.3337 104.727 40.6875C111.438 41.4625 116.984 44.3687 121.367 49.4062C125.789 54.3663 128 60.1788 128 66.8438C128 74.1287 125.459 80.3094 120.378 85.3856C115.297 90.4619 109.11 93 101.818 93H69.8182V51.4406L79.1273 60.45L87.2727 52.3125L64 29.0625L40.7273 52.3125L48.8727 60.45L58.1818 51.4406V93Z" fill="#14A54A"/>
</svg>
