<svg width="224" height="72" viewBox="0 0 224 72" fill="none" xmlns="http://www.w3.org/2000/svg">
<path d="M52.6539 47V43.288H55.5979V28.312H52.6539V24.6H61.8699C64.8779 24.6 67.1606 25.368 68.7179 26.904C70.2966 28.4187 71.0859 30.68 71.0859 33.688V37.912C71.0859 40.92 70.2966 43.192 68.7179 44.728C67.1606 46.2427 64.8779 47 61.8699 47H52.6539ZM59.8219 43.16H61.9339C63.6406 43.16 64.8886 42.712 65.6779 41.816C66.4672 40.92 66.8619 39.6613 66.8619 38.04V33.56C66.8619 31.9173 66.4672 30.6587 65.6779 29.784C64.8886 28.888 63.6406 28.44 61.9339 28.44H59.8219V43.16ZM81.0064 47.448C79.4277 47.448 78.0304 47.1173 76.8144 46.456C75.6197 45.7733 74.6811 44.824 73.9984 43.608C73.3371 42.3707 73.0064 40.92 73.0064 39.256V38.872C73.0064 37.208 73.3371 35.768 73.9984 34.552C74.6597 33.3147 75.5877 32.3653 76.7824 31.704C77.9771 31.0213 79.3637 30.68 80.9424 30.68C82.4997 30.68 83.8544 31.032 85.0064 31.736C86.1584 32.4187 87.0544 33.3787 87.6944 34.616C88.3344 35.832 88.6544 37.2507 88.6544 38.872V40.248H77.1024C77.1451 41.336 77.5504 42.2213 78.3184 42.904C79.0864 43.5867 80.0251 43.928 81.1344 43.928C82.2651 43.928 83.0971 43.6827 83.6304 43.192C84.1637 42.7013 84.5691 42.1573 84.8464 41.56L88.1424 43.288C87.8437 43.8427 87.4064 44.4507 86.8304 45.112C86.2757 45.752 85.5291 46.3067 84.5904 46.776C83.6517 47.224 82.4571 47.448 81.0064 47.448ZM77.1344 37.24H84.5584C84.4731 36.3227 84.0997 35.5867 83.4384 35.032C82.7984 34.4773 81.9557 34.2 80.9104 34.2C79.8224 34.2 78.9584 34.4773 78.3184 35.032C77.6784 35.5867 77.2837 36.3227 77.1344 37.24ZM91.2831 53.4V31.128H95.2511V33.048H95.8271C96.1898 32.4293 96.7551 31.8853 97.5231 31.416C98.2911 30.9253 99.3898 30.68 100.819 30.68C102.099 30.68 103.283 31 104.371 31.64C105.459 32.2587 106.334 33.176 106.995 34.392C107.656 35.608 107.987 37.08 107.987 38.808V39.32C107.987 41.048 107.656 42.52 106.995 43.736C106.334 44.952 105.459 45.88 104.371 46.52C103.283 47.1387 102.099 47.448 100.819 47.448C99.8591 47.448 99.0485 47.3307 98.3871 47.096C97.7471 46.8827 97.2245 46.6053 96.8191 46.264C96.4351 45.9013 96.1258 45.5387 95.8911 45.176H95.3151V53.4H91.2831ZM99.6031 43.928C100.862 43.928 101.896 43.5333 102.707 42.744C103.539 41.9333 103.955 40.76 103.955 39.224V38.904C103.955 37.368 103.539 36.2053 102.707 35.416C101.875 34.6053 100.84 34.2 99.6031 34.2C98.3658 34.2 97.3311 34.6053 96.4991 35.416C95.6671 36.2053 95.2511 37.368 95.2511 38.904V39.224C95.2511 40.76 95.6671 41.9333 96.4991 42.744C97.3311 43.5333 98.3658 43.928 99.6031 43.928ZM110.729 47V24.6H114.761V47H110.729ZM125.821 47.448C124.243 47.448 122.824 47.128 121.565 46.488C120.307 45.848 119.315 44.92 118.589 43.704C117.864 42.488 117.501 41.0267 117.501 39.32V38.808C117.501 37.1013 117.864 35.64 118.589 34.424C119.315 33.208 120.307 32.28 121.565 31.64C122.824 31 124.243 30.68 125.821 30.68C127.4 30.68 128.819 31 130.077 31.64C131.336 32.28 132.328 33.208 133.053 34.424C133.779 35.64 134.141 37.1013 134.141 38.808V39.32C134.141 41.0267 133.779 42.488 133.053 43.704C132.328 44.92 131.336 45.848 130.077 46.488C128.819 47.128 127.4 47.448 125.821 47.448ZM125.821 43.864C127.059 43.864 128.083 43.4693 128.893 42.68C129.704 41.8693 130.109 40.7173 130.109 39.224V38.904C130.109 37.4107 129.704 36.2693 128.893 35.48C128.104 34.6693 127.08 34.264 125.821 34.264C124.584 34.264 123.56 34.6693 122.749 35.48C121.939 36.2693 121.533 37.4107 121.533 38.904V39.224C121.533 40.7173 121.939 41.8693 122.749 42.68C123.56 43.4693 124.584 43.864 125.821 43.864ZM138.631 53.4V49.88H147.271C147.868 49.88 148.167 49.56 148.167 48.92V44.92H147.591C147.42 45.2827 147.154 45.6453 146.791 46.008C146.428 46.3707 145.938 46.6693 145.319 46.904C144.7 47.1387 143.911 47.256 142.951 47.256C141.714 47.256 140.626 46.9787 139.687 46.424C138.77 45.848 138.055 45.0587 137.543 44.056C137.031 43.0533 136.775 41.9013 136.775 40.6V31.128H140.807V40.28C140.807 41.4747 141.095 42.3707 141.671 42.968C142.268 43.5653 143.111 43.864 144.199 43.864C145.436 43.864 146.396 43.4587 147.079 42.648C147.762 41.816 148.103 40.664 148.103 39.192V31.128H152.135V49.816C152.135 50.904 151.815 51.768 151.175 52.408C150.535 53.0693 149.682 53.4 148.615 53.4H138.631ZM164.046 47.448C161.273 47.448 159.075 46.68 157.454 45.144C155.833 43.5867 155.022 41.368 155.022 38.488V33.112C155.022 30.232 155.833 28.024 157.454 26.488C159.075 24.9307 161.273 24.152 164.046 24.152C166.798 24.152 168.921 24.9093 170.414 26.424C171.929 27.9173 172.686 29.976 172.686 32.6V32.792H168.526V32.472C168.526 31.1493 168.153 30.0613 167.406 29.208C166.681 28.3547 165.561 27.928 164.046 27.928C162.553 27.928 161.379 28.3867 160.526 29.304C159.673 30.2213 159.246 31.4693 159.246 33.048V38.552C159.246 40.1093 159.673 41.3573 160.526 42.296C161.379 43.2133 162.553 43.672 164.046 43.672C165.561 43.672 166.681 43.2453 167.406 42.392C168.153 41.5173 168.526 40.4293 168.526 39.128V38.552H172.686V39C172.686 41.624 171.929 43.6933 170.414 45.208C168.921 46.7013 166.798 47.448 164.046 47.448ZM175.296 47V24.6H179.328V33.08H179.904C180.074 32.7387 180.341 32.3973 180.704 32.056C181.066 31.7147 181.546 31.4373 182.144 31.224C182.762 30.9893 183.541 30.872 184.48 30.872C185.717 30.872 186.794 31.16 187.712 31.736C188.65 32.2907 189.376 33.0693 189.888 34.072C190.4 35.0533 190.656 36.2053 190.656 37.528V47H186.624V37.848C186.624 36.6533 186.325 35.7573 185.728 35.16C185.152 34.5627 184.32 34.264 183.232 34.264C181.994 34.264 181.034 34.68 180.352 35.512C179.669 36.3227 179.328 37.464 179.328 38.936V47H175.296ZM201.286 47.448C199.708 47.448 198.31 47.1173 197.094 46.456C195.9 45.7733 194.961 44.824 194.278 43.608C193.617 42.3707 193.286 40.92 193.286 39.256V38.872C193.286 37.208 193.617 35.768 194.278 34.552C194.94 33.3147 195.868 32.3653 197.062 31.704C198.257 31.0213 199.644 30.68 201.222 30.68C202.78 30.68 204.134 31.032 205.286 31.736C206.438 32.4187 207.334 33.3787 207.974 34.616C208.614 35.832 208.934 37.2507 208.934 38.872V40.248H197.382C197.425 41.336 197.83 42.2213 198.598 42.904C199.366 43.5867 200.305 43.928 201.414 43.928C202.545 43.928 203.377 43.6827 203.91 43.192C204.444 42.7013 204.849 42.1573 205.126 41.56L208.422 43.288C208.124 43.8427 207.686 44.4507 207.11 45.112C206.556 45.752 205.809 46.3067 204.87 46.776C203.932 47.224 202.737 47.448 201.286 47.448ZM197.414 37.24H204.838C204.753 36.3227 204.38 35.5867 203.718 35.032C203.078 34.4773 202.236 34.2 201.19 34.2C200.102 34.2 199.238 34.4773 198.598 35.032C197.958 35.5867 197.564 36.3227 197.414 37.24ZM213.656 47V34.456H209.624V31.128H213.656V28.184C213.656 27.096 213.976 26.232 214.616 25.592C215.277 24.9307 216.131 24.6 217.176 24.6H221.336V27.928H218.584C217.987 27.928 217.688 28.248 217.688 28.888V31.128H221.848V34.456H217.688V47H213.656Z" fill="#14A64A"/>
<path d="M31.2998 29.1622C31.352 28.9961 31.4188 28.904 31.6419 28.6903C31.8517 28.4892 32.0779 28.3226 32.1051 28.3489C32.1102 28.3539 32.0893 28.3711 32.0586 28.387C32.0238 28.4051 32.0027 28.4349 32.0027 28.466C32.0027 28.4996 31.9807 28.527 31.9357 28.5496C31.8988 28.5682 31.8686 28.593 31.8686 28.6048C31.8686 28.6166 31.8258 28.6685 31.7736 28.7203C31.7214 28.772 31.6546 28.8457 31.6251 28.8842C31.5958 28.9227 31.5482 28.9628 31.5196 28.9734C31.4893 28.9845 31.4613 29.0179 31.4527 29.053C31.4389 29.1092 31.3442 29.2084 31.3027 29.2102C31.2926 29.2106 31.2913 29.189 31.2998 29.1622Z" fill="#1F9B4E" stroke="#1F9B4E" stroke-width="0.363618"/>
<path d="M15.0808 57.701C14.6447 57.6809 14.2332 57.6197 14.0637 57.5495C14.0391 57.5394 13.9586 57.5149 13.8848 57.4951C13.8111 57.4753 13.7085 57.4406 13.657 57.4179C13.6054 57.3951 13.5562 57.3766 13.5477 57.3766C13.5269 57.3766 13.1895 57.2116 13.0898 57.1526C12.8962 57.0382 12.7689 56.9255 12.5007 56.6309C12.3431 56.4579 12.1996 56.289 12.1818 56.2557C12.164 56.2224 12.1258 56.1652 12.0969 56.1285C12.0462 56.0639 12.035 56.0607 11.7352 56.024C11.3792 55.9805 11.1761 55.947 10.8 55.87C10.6524 55.8398 10.4311 55.8003 10.3082 55.7823C10.0425 55.7434 9.59714 55.6393 9.42519 55.5758C9.35754 55.5508 9.27206 55.5199 9.23518 55.5071C9.19829 55.4943 9.15806 55.4769 9.14576 55.4682C9.13347 55.4596 9.05299 55.4305 8.96693 55.4034C8.88087 55.3764 8.80039 55.3471 8.7881 55.3383C8.7758 55.3296 8.7255 55.3101 8.67633 55.295C8.62715 55.28 8.57685 55.2604 8.56456 55.2515C8.55226 55.2426 8.51708 55.228 8.48632 55.2191C8.39645 55.1931 7.6568 54.8363 7.5554 54.7701C7.50443 54.7368 7.45414 54.709 7.44363 54.7082C7.43308 54.7074 7.37921 54.6733 7.3239 54.6324C7.2686 54.5915 7.20181 54.5489 7.17552 54.5377C7.10832 54.5091 6.65328 54.0665 6.65328 54.0297C6.65328 54.013 6.6383 53.9873 6.61997 53.9726C6.60169 53.9579 6.54508 53.8639 6.49416 53.7637C6.38574 53.5505 6.3587 53.3827 6.38968 53.1159C6.42656 52.7983 6.50418 52.645 6.66446 52.5734C6.96141 52.4408 6.89663 52.4479 7.93864 52.4332C8.46731 52.4257 17.7722 52.4214 28.6162 52.4237C44.0165 52.4269 48.3667 52.4336 48.489 52.4543C48.6964 52.4894 48.846 52.5587 48.9746 52.6792C49.1404 52.8345 49.1817 52.9411 49.1818 53.2135C49.1818 53.443 49.1735 53.4767 49.0537 53.7339C48.9357 53.9871 48.5448 54.4249 48.2695 54.612C48.1994 54.6597 48.0843 54.7399 48.0139 54.7902C47.9434 54.8405 47.8404 54.9036 47.785 54.9303C47.7296 54.9571 47.644 55.0045 47.5948 55.0357C47.5456 55.0669 47.4652 55.1079 47.416 55.1266C47.3668 55.1454 47.2612 55.1895 47.1813 55.2245C47.1014 55.2596 46.9857 55.3054 46.9242 55.3262C46.8627 55.3471 46.7822 55.377 46.7454 55.3926C46.7085 55.4083 46.5878 55.4471 46.4771 55.4789C46.3665 55.5107 46.2585 55.5457 46.0912 55.5972C46.0698 55.6084 45.9568 55.6382 45.84 55.6634C45.7232 55.6886 45.5925 55.7185 45.5494 55.7297C45.4759 55.749 45.1244 55.8119 44.8229 55.8598C44.7491 55.8715 44.4402 55.9205 44.1364 55.9687C43.5968 56.0544 43.4481 56.0935 43.4481 56.15C43.4481 56.1653 43.4003 56.2402 43.3419 56.3164C43.2836 56.3927 43.2191 56.4802 43.1987 56.5109C43.1483 56.5867 42.7222 56.9903 42.6029 57.0752C42.476 57.1655 42.0442 57.3773 41.861 57.4393C41.7811 57.4662 41.6855 57.501 41.6486 57.5166C41.5008 57.5789 41.2444 57.644 40.9892 57.6841C40.8591 57.7046 37.9769 57.7113 28.1244 57.7137C21.141 57.7155 15.2714 57.7097 15.0808 57.701Z" fill="#18A94B" stroke="#18A94B" stroke-width="0.363618"/>
<path d="M23.3459 51.2897C23.3859 51.2848 23.4513 51.2848 23.4912 51.2897C23.5312 51.2944 23.4985 51.2984 23.4186 51.2984C23.3386 51.2984 23.306 51.2944 23.3459 51.2897Z" fill="#001004" stroke="#001004" stroke-width="0.363618"/>
<path d="M21.8667 51.2892C21.0698 51.2859 20.4991 51.2752 20.4916 51.2636C20.4847 51.2526 20.2326 51.2373 19.9316 51.2295C19.3072 51.2134 18.8654 51.1691 18.8142 51.1176C18.7839 51.0872 18.7916 51.0853 18.8924 51.0994C19.2727 51.1523 20.0212 51.1823 21.537 51.2055C21.8397 51.2101 21.9994 51.2207 22.0164 51.2373C22.0345 51.2547 22.2172 51.2621 22.6287 51.2621C22.9956 51.2621 23.2205 51.2703 23.2291 51.2838C23.2367 51.2958 23.2398 51.3032 23.236 51.3003C23.2322 51.2974 22.616 51.2924 21.8667 51.2892Z" fill="#001004" stroke="#001004" stroke-width="0.363618"/>
<path d="M35.5129 51.2791C35.5129 51.2697 35.8222 51.2634 36.2003 51.265C36.5784 51.2666 36.8676 51.2711 36.843 51.2749C36.7402 51.2909 35.5129 51.2947 35.5129 51.2791Z" fill="#3C582F" stroke="#3C582F" stroke-width="0.363618"/>
<path d="M24.6631 51.3131C24.6611 51.3114 24.3391 51.3065 23.9476 51.3023C23.5561 51.2981 23.2311 51.2873 23.2253 51.2784C23.2196 51.2694 22.951 51.2621 22.6284 51.2621C22.2169 51.2621 22.0341 51.2547 22.0161 51.2372C21.999 51.2206 21.8393 51.21 21.5367 51.2054C20.0208 51.1823 19.2724 51.1522 18.8921 51.0993C18.7913 51.0853 18.7836 51.0871 18.8139 51.1176C18.865 51.1691 19.3069 51.2133 19.9312 51.2294C20.3128 51.2393 20.4835 51.2513 20.4949 51.2691C20.5214 51.3107 19.3637 51.3148 19.0828 51.2741C18.6871 51.2167 18.4187 51.0519 18.1451 50.6985C17.9199 50.4075 17.8303 50.1735 17.8303 49.8762C17.8303 49.66 17.9017 49.3935 18.0002 49.2422C18.0297 49.1969 18.0538 49.1516 18.0538 49.1417C18.0538 49.1017 18.3749 48.7891 18.4844 48.7224C18.6582 48.6164 18.6838 48.6044 18.8391 48.5559C19.1701 48.4526 19.0339 48.4565 22.7276 48.4442L26.2277 48.4325L26.3098 48.3718C26.3549 48.3384 26.3919 48.2952 26.3919 48.2759C26.3919 48.2566 26.4091 48.2223 26.4302 48.1998C26.4645 48.163 26.4703 48.0553 26.4869 47.1356C26.5113 45.7826 26.5045 45.3958 26.4545 45.3102C26.4337 45.2745 26.4066 45.2242 26.3944 45.1985C26.3823 45.1728 26.3378 45.1264 26.2957 45.0952L26.2191 45.0385L20.2419 45.0301C16.5999 45.0249 14.1993 45.0135 14.0971 45.0007C13.7163 44.9534 13.2934 44.8537 13.0975 44.7652C13.051 44.7442 12.9499 44.6899 12.8729 44.6446C12.7958 44.5993 12.7254 44.5621 12.7164 44.5621C12.7073 44.5621 12.647 44.523 12.5822 44.4754C12.5174 44.4277 12.4582 44.3887 12.4506 44.3887C12.4178 44.3887 12.0444 44.0395 11.9068 43.8801C11.7303 43.6757 11.6625 43.5755 11.5337 43.3291C11.3804 43.0355 11.2871 42.7278 11.2601 42.4265C11.2077 41.8412 11.192 40.1185 11.1861 34.3605L11.1799 28.3111L11.2285 28.2135C11.2585 28.1533 11.374 28.0246 11.5303 27.8771C12.0877 27.3512 13.2046 26.3922 13.2598 26.3922C13.2674 26.3922 13.3156 26.3582 13.3668 26.3168C13.581 26.1435 13.9176 25.9152 13.9587 25.9152C13.983 25.9152 14.0091 25.9307 14.0166 25.9497C14.0241 25.9687 14.0301 29.4083 14.03 33.5933C14.0298 39.03 14.0367 41.2317 14.0542 41.3049C14.1163 41.5648 14.2287 41.7249 14.4918 41.9278C14.7174 42.1018 14.7539 42.1225 14.9106 42.166C15.01 42.1936 16.4082 42.1988 25.6542 42.2061C36.8536 42.215 41.1047 42.2018 41.2797 42.1576C41.4379 42.1177 41.5044 42.0806 41.6547 41.9487C41.8657 41.7634 41.9887 41.5771 42.0761 41.3099C42.1646 41.0393 42.1781 40.8414 42.1626 40.0414C42.1547 39.6359 42.145 36.1673 42.1411 32.3332C42.1357 26.9843 42.1277 25.3421 42.1071 25.2756C42.0056 24.9475 41.809 24.7262 41.485 24.575C41.258 24.4691 41.6932 24.4733 31.198 24.4764C25.6488 24.478 20.4437 24.4895 19.2721 24.5027C17.2152 24.5259 16.6798 24.5171 16.6076 24.4589C16.5537 24.4155 16.5771 24.357 16.6735 24.2942C16.7769 24.2267 17.5388 23.8553 17.5739 23.8553C17.5859 23.8553 17.746 23.7822 17.9298 23.6929C18.1136 23.6037 18.2984 23.5196 18.3405 23.5061C18.3826 23.4926 18.4696 23.4548 18.5338 23.422C18.598 23.3892 18.7502 23.3306 18.8719 23.2918C18.9937 23.253 19.1028 23.2126 19.1145 23.2022C19.1707 23.1926 19.3005 23.1425 19.3047 23.1398C19.3273 23.1398 19.4007 23.1118 19.4676 23.0777C19.5346 23.0435 19.7494 22.9641 19.9449 22.9013C20.1404 22.8385 20.3105 22.7799 20.3228 22.7711C20.3351 22.7623 20.3853 22.7429 20.4345 22.7279C20.4837 22.7128 20.534 22.6932 20.5463 22.6843C20.5586 22.6754 20.6743 22.6363 20.8034 22.5973C20.9325 22.5584 21.0582 22.519 21.0828 22.5097C21.1074 22.5004 21.213 22.4712 21.3175 22.4447C21.6436 22.3621 21.6949 22.3474 21.7113 22.3314C21.7585 22.3282 21.8959 22.2741 21.9082 22.2725C21.9365 22.2725 22.0392 22.2533 22.1365 22.2298C22.328 22.1836 22.8261 22.079 23.1841 22.0097C23.307 21.986 23.4227 21.9602 23.4412 21.9526C23.6076 21.8836 23.8703 21.88 30.2703 21.8586C37.8879 21.8331 41.305 21.8421 41.7492 21.889C42.2503 21.9419 42.6155 22.0448 43.0904 22.2669C43.1826 22.31 43.2892 22.368 43.3272 22.3957C43.3653 22.4233 43.4027 22.446 43.4104 22.446C43.4448 22.446 43.716 22.6437 43.8852 22.7922C44.4175 23.2595 44.7848 23.9135 44.9026 24.6034C44.9169 24.6869 44.9369 24.7795 44.947 24.8094C45.0119 25.0009 45.0138 25.2947 45.0036 33.6125C44.9978 38.2574 44.9867 42.1554 44.9789 42.2747C44.9711 42.3939 44.9566 42.511 44.9466 42.5349C44.9367 42.5587 44.9165 42.6222 44.9018 42.6758C44.811 43.0082 44.6928 43.2833 44.5676 43.454C44.542 43.4888 44.5209 43.5255 44.5208 43.5356C44.5204 43.5552 44.3819 43.7344 44.1909 43.9623C44.019 44.1675 43.6549 44.4595 43.4145 44.5849C43.3408 44.6235 43.2653 44.6672 43.2469 44.6821C43.1762 44.7393 42.7553 44.8826 42.6008 44.9021C42.5442 44.9093 42.488 44.9222 42.4757 44.931C42.4492 44.9497 42.3151 44.9688 41.9951 44.9994C41.8427 45.0139 39.6586 45.0248 35.7708 45.0304L29.7813 45.0389L29.7164 45.0987C29.5883 45.2169 29.5913 45.1895 29.5894 46.2553C29.5884 46.7969 29.578 47.3278 29.5661 47.4351C29.5543 47.5424 29.5444 47.7398 29.5442 47.8736C29.5439 48.0905 29.5496 48.127 29.5974 48.2097C29.6269 48.2607 29.6859 48.3299 29.7285 48.3635L29.8061 48.4245L31.2788 48.4236C32.0889 48.4232 33.6821 48.4318 34.8194 48.4428C36.785 48.462 36.8982 48.4653 37.1107 48.5083C37.2439 48.5352 37.402 48.5857 37.5019 48.6331C37.8228 48.7853 38.1267 49.1556 38.2345 49.5256C38.2773 49.673 38.2806 50.1226 38.2394 50.2273C38.1448 50.4681 38.0126 50.6815 37.8624 50.8359C37.6548 51.0494 37.2826 51.2621 37.1166 51.2621C37.07 51.2621 37.0119 51.2742 36.9874 51.289C36.9521 51.3104 36.9339 51.3104 36.8986 51.289C36.8409 51.254 35.5203 51.2499 35.5083 51.2847C35.5004 51.3077 32.3791 51.3109 28.0684 51.2924C26.9681 51.2877 25.7525 51.2911 25.3673 51.3001C24.9821 51.309 24.6652 51.3149 24.6631 51.3131Z" fill="#18A94B" stroke="#18A94B" stroke-width="0.363618"/>
<path d="M4.39905 28.211C4.1093 28.192 3.70455 28.1045 3.51271 28.0193C3.48812 28.0084 3.40765 27.9834 3.33388 27.9637C3.19081 27.9256 3.14798 27.9091 2.92033 27.8048C2.75406 27.7287 2.63826 27.6651 2.49797 27.5733C2.44401 27.5379 2.38347 27.4992 2.36353 27.4873C2.1822 27.3788 1.63412 26.8768 1.59831 26.7863C1.59039 26.7663 1.55771 26.7264 1.52566 26.6975C1.49355 26.6686 1.46731 26.6335 1.3779 26.4951C1.3779 26.4837 1.35018 26.434 1.31624 26.3846C1.20487 26.2222 1.11112 26.0177 0.996892 25.6876C0.827537 25.1984 0.773575 24.8472 0.818551 24.5276C0.832813 24.4262 0.853512 24.2555 0.864466 24.1481C0.89138 23.8852 0.921245 23.7345 0.985312 23.5388C1.02139 23.4287 1.03485 23.3488 1.02609 23.2966C1.01348 23.2212 0.67012 22.5381 0.610211 22.4692C0.574132 22.4278 0.520928 22.3132 0.483552 22.1967C0.468262 22.149 0.436966 22.0691 0.413941 22.0192C0.328281 21.8332 0.225362 21.3717 0.191965 21.0238C0.166169 20.7546 0.191428 20.3128 0.250086 20.0068C0.268416 19.9114 0.289653 19.7867 0.297342 19.7297C0.304988 19.6727 0.31992 19.6209 0.330471 19.6146C0.340978 19.6083 0.349607 19.5835 0.349607 19.5596C0.349607 19.5161 0.364181 19.4661 0.488157 19.0853C0.56358 18.8534 0.814974 18.3389 0.917087 18.2071C0.954106 18.1594 1.03516 18.0712 1.09731 18.0111C1.27502 17.8391 1.33886 17.7632 1.47612 17.5611C1.54658 17.4573 1.614 17.3723 1.62594 17.3723C1.63783 17.3723 1.65477 17.3536 1.66362 17.3307C1.68924 17.2643 1.90116 17.06 2.1463 16.8655C2.36179 16.6945 2.63361 16.505 2.66357 16.505C2.6713 16.505 2.71959 16.4776 2.771 16.4441C2.91903 16.3476 3.36567 16.1427 3.51271 16.1039C3.58648 16.0844 3.6619 16.063 3.68037 16.0563C3.71725 16.0429 3.71833 16.0428 3.99976 16.0182C4.17207 16.0032 4.20158 16.0058 4.24007 16.0396C4.26417 16.0608 4.28393 16.0962 4.28393 16.1184C4.28393 16.1406 4.29251 16.1756 4.30297 16.1964C4.31348 16.2171 4.36548 16.3657 4.41846 16.5267C4.47148 16.6877 4.52191 16.8292 4.53058 16.8411C4.53926 16.853 4.55893 16.9018 4.57431 16.9495C4.58969 16.9972 4.6111 17.0455 4.62192 17.0569C4.63279 17.0682 4.64159 17.0919 4.64159 17.1094C4.64159 17.1482 5.02903 17.9122 5.11027 18.0337C5.14219 18.0814 5.18274 18.1497 5.20045 18.1854C5.21815 18.2212 5.26058 18.2913 5.29478 18.3411C5.32894 18.391 5.35692 18.4369 5.35692 18.4432C5.35692 18.4798 5.55302 18.7001 5.61011 18.7278C5.68826 18.7656 5.72984 18.7432 5.69639 18.6813C5.68441 18.659 5.65142 18.5645 5.62316 18.4714C5.59486 18.3782 5.56366 18.2971 5.51492 18.158C5.45797 18.0551 5.37874 17.5696 5.31235 16.917C5.28879 16.6852 5.23746 15.8615 5.24417 15.822C5.24614 15.8101 5.25208 15.7321 5.25727 15.6486C5.27225 15.4081 5.3128 15.009 5.33555 14.8788C5.39792 14.5217 5.45385 14.2585 5.47129 14.2403C5.4822 14.229 5.49105 14.1894 5.49105 14.1525C5.49105 14.1155 5.49986 14.076 5.51063 14.0647C5.52141 14.0533 5.55293 13.9758 5.58069 13.8923C5.60841 13.8088 5.63845 13.7308 5.64735 13.7188C5.65629 13.7069 5.66975 13.6654 5.67735 13.6267C5.68495 13.5879 5.71151 13.5128 5.73636 13.4598C5.76127 13.4068 5.78165 13.3559 5.78165 13.3467C5.78165 13.3218 6.2096 12.4883 6.24188 12.4504C6.25708 12.4325 6.29817 12.3641 6.33322 12.2983C6.36827 12.2325 6.46725 12.0775 6.55314 11.9539C6.63907 11.8303 6.71941 11.7135 6.7317 11.6945C6.869 11.4816 7.52956 10.7985 7.83823 10.5501C8.05404 10.3765 8.50773 10.0436 8.52852 10.0436C8.57153 10.0048 8.77008 9.88436 8.78211 9.87018C8.79338 9.87018 8.84461 9.84255 8.89602 9.80877C8.94739 9.77499 9.00453 9.74082 9.023 9.73279C9.04146 9.72477 9.10682 9.68947 9.1683 9.65435C9.34347 9.55422 9.86387 9.30643 9.89897 9.30643C9.91636 9.30643 9.94014 9.29789 9.95181 9.28735C9.96348 9.27685 10.0133 9.25608 10.0625 9.24116C10.1116 9.22625 10.1619 9.20686 10.1742 9.1981C10.2018 9.17842 10.7735 8.9981 10.9566 8.9514C11.133 8.90639 11.4517 8.84329 11.8083 8.78284C12.0556 8.7409 12.1747 8.73401 12.6444 8.73436C13.2917 8.73492 13.4368 8.75361 14.4103 8.96181C14.5271 8.98683 14.6529 9.01601 14.6898 9.02668C14.8843 9.08306 15.1727 9.18414 15.2732 9.23128C15.3359 9.26068 15.3946 9.28475 15.4037 9.28475C15.4128 9.28475 15.4823 9.31259 15.5581 9.34667C15.634 9.38076 15.7211 9.41632 15.7518 9.42573C15.7824 9.43518 15.8427 9.46423 15.8857 9.49034C15.9287 9.51649 16.0142 9.56276 16.0757 9.5932C16.3923 9.74979 16.4802 9.80023 16.568 9.87512C16.6207 9.92009 16.6762 9.95691 16.6914 9.95691C16.7066 9.95691 16.8962 9.78375 17.1127 9.57204C17.3292 9.36033 17.5564 9.14815 17.6177 9.10044C17.7881 8.9677 18.1635 8.69932 18.1789 8.69932C18.1863 8.69932 18.2204 8.68002 18.2546 8.65643C18.2887 8.63284 18.3909 8.57534 18.4816 8.52863C18.5723 8.48193 18.6766 8.4282 18.7135 8.4092C18.9699 8.27716 19.6271 8.07889 19.9877 8.02473C20.2114 7.99112 20.8642 7.99195 21.1166 8.02612C21.3336 8.05552 21.654 8.13063 21.8218 8.19793C21.8335 8.20838 21.9135 8.23895 21.9995 8.26588C22.0856 8.29277 22.1661 8.322 22.1784 8.3308C22.1907 8.33956 22.2405 8.35916 22.289 8.37438C22.3376 8.38952 22.4281 8.43128 22.4902 8.4671C22.5523 8.50292 22.6584 8.56155 22.7261 8.59737C22.7937 8.63323 22.8757 8.68058 22.9083 8.70266C22.941 8.72464 22.9738 8.74268 22.9812 8.74268C22.9986 8.74268 23.1932 8.87447 23.352 8.99368C23.527 9.12503 23.8587 9.46029 24.0189 9.66762C24.1567 9.84589 24.2512 9.93522 24.3022 9.93522C24.3174 9.93522 24.3765 9.91519 24.4334 9.89077C24.6879 9.78158 25.4781 9.74216 26.0041 9.81246C26.2708 9.8481 26.717 9.95439 26.8692 10.0185C26.9203 10.04 27.0074 10.0759 27.0628 10.0981C27.1181 10.1203 27.2066 10.166 27.2595 10.1995C27.3123 10.2331 27.3605 10.2605 27.3664 10.2605C27.3872 10.2605 27.6843 10.4569 27.7114 10.4886C27.7265 10.5062 27.7522 10.5207 27.7686 10.5207C27.7849 10.5207 27.9324 10.6499 28.0962 10.8079C28.4161 11.1164 28.6122 11.3665 28.7952 11.6994C28.8567 11.8113 28.9182 11.9162 28.932 11.9327C28.9458 11.9491 28.9697 12.0016 28.9852 12.0493C29.0007 12.097 29.0209 12.1458 29.0301 12.1577C29.0393 12.1696 29.0542 12.2037 29.0632 12.2336C29.0723 12.2634 29.0923 12.3171 29.1077 12.3528C29.2193 12.611 29.3304 13.071 29.3776 13.4695C29.4113 13.754 29.4095 13.845 29.3633 14.185C29.3327 14.4111 29.1635 15.0532 29.0754 15.2779C29.0464 15.352 28.856 15.7454 28.8279 15.7895C28.8165 15.8074 28.7874 15.8619 28.7632 15.9106C28.739 15.9594 28.7036 16.0118 28.6845 16.0272C28.6655 16.0425 28.6499 16.0639 28.6499 16.0749C28.6499 16.1129 28.3392 16.4956 28.145 16.6966C27.9148 16.9351 27.2826 17.4591 27.1025 17.5458C27.0912 17.5458 27.04 17.5735 26.9885 17.6072C26.9372 17.6409 26.88 17.6752 26.8616 17.6834C26.8431 17.6915 26.7727 17.728 26.7051 17.7645C26.6374 17.801 26.5067 17.8682 26.4145 17.9137C25.9674 18.1344 25.2031 18.2859 24.5367 18.2856L24.235 18.2855L24.1113 18.1528C24.0432 18.0799 23.966 17.9793 23.9396 17.9294C23.8766 17.8102 23.7993 17.6395 23.7983 17.6175C23.7978 17.6079 23.7781 17.561 23.7543 17.5133C23.7306 17.4656 23.7108 17.4187 23.7104 17.4091C23.71 17.3995 23.6896 17.3489 23.665 17.2966C23.6114 17.1825 23.5532 16.973 23.5532 16.8945C23.5532 16.8372 23.6331 16.6645 23.6914 16.5961C23.7086 16.5759 23.737 16.53 23.7543 16.4942C23.7717 16.4584 23.7983 16.4145 23.8134 16.3965C23.8566 16.345 24.1279 15.82 24.1579 15.7299C24.1728 15.6852 24.1932 15.6383 24.2035 15.6256C24.2137 15.6131 24.2481 15.4813 24.2798 15.3329C24.3115 15.1846 24.3536 14.9968 24.3733 14.9158C24.4203 14.7227 24.401 14.1547 24.3381 13.8775C24.2905 13.6677 24.2796 13.6429 24.2347 13.6429C24.1993 13.6429 24.039 13.9566 24.0007 14.1006C23.9633 14.2418 23.818 14.6695 23.799 14.6945C23.7899 14.7065 23.7695 14.7553 23.7537 14.803C23.7379 14.8507 23.7073 14.9201 23.6858 14.9572C23.6314 15.0513 23.6077 15.0965 23.5734 15.1716C23.557 15.2073 23.5258 15.2622 23.5042 15.2935C23.4825 15.3247 23.4319 15.4101 23.3916 15.4832C23.2664 15.7107 23.0429 15.997 22.8186 16.2175C22.5984 16.4338 22.3033 16.6785 22.2624 16.6785C22.25 16.6785 22.2268 16.6936 22.211 16.7121C22.1952 16.7306 22.1393 16.7647 22.0866 16.788C22.0341 16.8112 21.9852 16.8393 21.9781 16.8505C21.9651 16.8709 21.9407 16.8845 21.7313 16.9875C21.3267 17.1866 20.8482 17.3202 20.2718 17.3951C19.8718 17.4471 19.1496 17.4005 18.7694 17.2981C18.7017 17.2799 18.6213 17.2589 18.5905 17.2514C18.528 17.2363 18.4057 17.1894 18.3244 17.1494C18.2949 17.1349 18.2522 17.0986 18.2295 17.0688C18.1913 17.0185 18.1899 16.9908 18.2101 16.6893C18.2441 16.1836 18.2387 15.6421 18.1978 15.4471C18.1638 15.2851 18.0693 14.9563 18.0314 14.868C18.0212 14.8442 18.0063 14.7954 17.9982 14.7596C17.9902 14.7238 17.9542 14.6346 17.9182 14.5613C17.8823 14.4881 17.8529 14.4208 17.8529 14.4118C17.8529 14.3817 17.7336 14.1538 17.6699 14.0618C17.6353 14.012 17.607 13.9657 17.607 13.959C17.607 13.9319 17.4428 13.7405 17.4196 13.7405C17.3925 13.7405 17.3935 13.7797 17.4325 14.2256C17.4457 14.3762 17.4556 14.6799 17.4546 14.9005C17.4523 15.417 17.4289 15.5875 17.2928 16.0822C17.2534 16.2253 17.2163 16.3693 17.2103 16.4023C17.0953 16.5105 17.0953 16.7393 17.0601 16.8022C17.0517 16.8347 17.0255 16.9026 17.0018 16.953C16.9781 17.0034 16.9587 17.0507 16.9587 17.0579C16.9587 17.0652 16.9398 17.1121 16.9168 17.1621C16.7872 17.443 16.7201 17.5647 16.6588 17.6305C16.6393 17.6514 16.6234 17.6755 16.6234 17.6842C16.6234 17.6929 16.5844 17.7556 16.5366 17.8235C16.3496 18.0897 15.7594 18.6059 15.4537 18.7709C15.3873 18.8066 15.2587 18.8853 15.1679 18.9456C15.0113 19.0495 14.776 19.1719 14.7322 19.1721C14.7211 19.1721 14.6641 19.1958 14.6055 19.2246C14.5097 19.2718 14.1747 19.3854 14.0303 19.4197C13.7096 19.496 13.6498 19.5012 13.1037 19.4997C12.4379 19.4981 12.167 19.4692 11.8173 19.3627C11.7373 19.3383 11.6624 19.3098 11.6507 19.2994C11.6391 19.2889 11.6161 19.2804 11.5998 19.2804C11.5716 19.2804 11.2629 19.1491 11.1913 19.1067C11.1729 19.0958 11.076 19.0474 10.9759 18.9991C10.8759 18.9508 10.7816 18.8968 10.7664 18.879C10.7448 18.8705 10.5829 18.7636 10.5814 18.76C10.5279 18.76 9.99312 18.3517 9.81742 18.1767C9.70913 18.0688 9.66438 18.046 9.63908 18.0858C9.63219 18.0965 9.66684 18.1816 9.71597 18.2749C9.76515 18.3681 9.80539 18.4535 9.80539 18.4646C9.80539 18.4756 9.82989 18.5344 9.85985 18.5952C9.88984 18.656 9.92986 18.74 9.94886 18.7817C10.0502 19.0044 10.2451 19.2642 10.4831 19.4937C10.5986 19.605 10.7142 19.7074 10.7399 19.7213C10.7657 19.7352 10.8926 19.8173 11.0219 19.9038C11.1512 19.9902 11.2661 20.061 11.2773 20.061C11.2885 20.061 11.31 20.0754 11.325 20.093C11.3401 20.1106 11.4042 20.1497 11.4675 20.1798C11.5308 20.2099 11.6115 20.257 11.6468 20.2845C11.7092 20.3329 11.71 20.3364 11.6765 20.3983C11.6238 20.4953 11.2363 20.8415 11.1804 20.8415C11.1718 20.8415 11.138 20.8599 11.1054 20.8824C10.9964 20.9574 10.8909 21.0075 10.7331 21.0595C10.5911 21.1062 10.5383 21.1111 10.1631 21.1118C9.69174 21.1127 9.48295 21.0842 9.27591 20.9907C9.19982 20.9564 9.12949 20.9283 9.11961 20.9283C9.10061 20.9283 8.7894 20.7876 8.73239 20.7532C8.71393 20.7421 8.67825 20.7243 8.65308 20.7136C8.62791 20.7029 8.58267 20.669 8.55249 20.6381C8.52235 20.6073 8.48685 20.5819 8.47362 20.5817C8.46039 20.5815 8.42569 20.5567 8.39654 20.5266C8.32447 20.4522 8.21615 20.4013 8.18803 20.4285C8.15771 20.4579 8.2077 20.6121 8.28299 20.7218C8.31598 20.7698 8.36749 20.8578 8.39753 20.9174C8.46584 21.0532 8.77867 21.3572 9.01611 21.5186C9.11291 21.5843 9.22561 21.6752 9.26657 21.7204C9.33439 21.7954 9.3398 21.8114 9.32719 21.9006C9.31959 21.9544 9.29898 22.048 9.28141 22.1085C9.26389 22.1689 9.23322 22.2818 9.21332 22.3593C9.17138 22.5226 9.0432 22.7918 8.95513 22.9014C8.9216 22.9431 8.8717 23.0163 8.84421 23.064C8.7513 23.2252 8.41233 23.6472 8.21973 23.8414C8.04112 24.0215 7.68823 24.31 7.645 24.3114C7.63445 24.3117 7.58634 24.341 7.53806 24.3764C7.48977 24.4119 7.441 24.4409 7.42973 24.4409C7.41846 24.4409 7.38252 24.4592 7.34988 24.4817C7.25287 24.5484 7.13984 24.6056 7.04466 24.636C6.99548 24.6517 6.92381 24.6817 6.88536 24.7026C6.66549 24.8223 5.99808 24.9691 5.5134 25.0043C5.1286 25.0323 4.99465 25.02 4.32023 24.8955C4.22107 24.8772 4.18271 24.8775 4.16375 24.8966C4.14498 24.9156 4.15266 24.931 4.19429 24.9579C4.22491 24.9776 4.28531 25.0236 4.32841 25.0602C4.3716 25.0967 4.46222 25.1539 4.52982 25.1873C4.59742 25.2207 4.70307 25.2758 4.76454 25.3096C4.89826 25.3834 5.05818 25.4599 5.07848 25.4599C5.08653 25.4599 5.1248 25.4737 5.16356 25.4906C5.20228 25.5075 5.26921 25.5269 5.31222 25.5337C5.772 25.6061 5.88166 25.6129 6.52425 25.6084C7.14579 25.6041 7.19162 25.6064 7.23485 25.6444C7.26024 25.6667 7.35766 25.8347 7.45133 26.0177C7.54494 26.2007 7.63011 26.3556 7.64053 26.3618C7.68238 26.3869 7.85356 26.8057 7.88249 26.9538C7.90864 27.0874 7.87449 27.1643 7.75243 27.2463C7.7054 27.2779 7.63825 27.3328 7.60311 27.3684C7.56801 27.404 7.52764 27.433 7.51338 27.433C7.47086 27.462 7.32225 27.5559 7.32614 27.5499C7.31197 27.5665 7.21768 27.6212 7.11664 27.6715C7.01555 27.7218 6.91782 27.7749 6.89936 27.7895C6.7989 27.869 6.24478 28.0286 5.68531 28.1391C5.46024 28.1836 4.86415 28.2408 4.71983 28.2318C4.69524 28.2303 4.55088 28.2209 4.39905 28.211Z" fill="#18A94B" stroke="#18A94B" stroke-width="0.363618"/>
<path d="M0.975098 18.0924C0.975098 18.0809 0.991192 18.0585 1.01086 18.0427C1.03058 18.0268 1.08204 17.9598 1.12523 17.8937C1.28238 17.653 1.66289 17.2301 1.81338 17.1288C1.86104 17.0967 1.84972 17.1147 1.77426 17.1908C1.71587 17.2498 1.66807 17.3101 1.66807 17.325C1.66807 17.3399 1.65323 17.3576 1.63508 17.3643C1.61693 17.3711 1.53547 17.4733 1.4541 17.5915C1.37269 17.7097 1.28926 17.8185 1.26874 17.8333C1.24817 17.8481 1.21464 17.8857 1.19412 17.9169C1.15111 17.9824 0.975098 18.1234 0.975098 18.0924Z" fill="#1F9B4E" stroke="#1F9B4E" stroke-width="0.363618"/>
<path d="M9.6492 27.9431C9.62314 27.9126 9.41189 27.5227 9.2965 27.2921C9.26672 27.2325 9.23288 27.1691 9.22144 27.1512C9.20239 27.1215 9.16457 27.0441 9.07631 26.8539C9.05852 26.8157 9.035 26.779 9.024 26.7724C9.01301 26.7658 8.94232 26.6391 8.8669 26.4909C8.79148 26.3427 8.7076 26.1891 8.68051 26.1496C8.5623 25.9775 8.28516 25.3538 8.28516 25.26C8.28516 25.2 8.469 25.0185 8.68967 24.8607C8.95672 24.6697 9.14329 24.5136 9.32462 24.3296C9.58952 24.0608 9.84167 23.7499 9.93158 23.5815C9.97526 23.4996 10.0291 23.4033 10.0512 23.3675C10.1693 23.1764 10.2182 23.0563 10.32 22.7062C10.3547 22.5867 10.6005 22.0904 10.6412 22.0576C10.6575 22.0445 10.74 22.0184 10.8248 21.9993C10.9095 21.9803 10.9989 21.9574 11.0235 21.9483C11.0481 21.9392 11.1724 21.9002 11.2997 21.8615C11.5192 21.7949 11.7865 21.6752 11.8636 21.609C11.883 21.5924 11.9115 21.5787 11.927 21.5787C11.9758 21.5787 12.4938 21.0571 12.67 20.8306C12.7627 20.7114 12.8556 20.6001 12.8763 20.5834C12.9062 20.5594 13.0342 20.5522 13.4889 20.5486C14.0337 20.5445 14.3712 20.5163 14.4202 20.4709C14.4319 20.46 14.4671 20.4508 14.4985 20.4503C14.5897 20.4487 14.7452 20.4012 14.9052 20.326C14.9869 20.2875 15.0623 20.2561 15.0728 20.256C15.0834 20.256 15.1403 20.2322 15.1992 20.2032C15.2582 20.1741 15.3437 20.1388 15.3892 20.1247C15.4348 20.1106 15.4921 20.0826 15.5167 20.0627C15.5413 20.0428 15.5916 20.0126 15.6285 19.9956C15.6654 19.9786 15.7376 19.9376 15.789 19.9044C15.8404 19.8713 15.8884 19.8441 15.8956 19.8441C15.9028 19.8441 15.9513 19.8176 16.0034 19.7851C16.0554 19.7526 16.1224 19.7132 16.1523 19.6976C16.3296 19.6048 16.7762 19.2042 17.1127 18.8359C17.485 18.4283 17.5518 18.3458 17.6505 18.1708C17.6752 18.1269 17.7159 18.0847 17.7409 18.077C17.7841 18.0637 17.9278 18.0969 17.9757 18.1312C17.988 18.14 18.0382 18.1598 18.0874 18.1752C18.1366 18.1906 18.207 18.2195 18.2439 18.2396C18.4091 18.3293 18.7724 18.4205 19.2404 18.4898C19.6288 18.5473 20.5058 18.5296 20.837 18.4575C21.0709 18.4066 21.2231 18.3658 21.2875 18.3366C21.3262 18.3191 21.3664 18.3045 21.3769 18.3043C21.3873 18.3041 21.4763 18.2653 21.5747 18.2179C21.673 18.1706 21.7629 18.1318 21.7743 18.1316C21.8058 18.131 22.2178 17.9343 22.2582 17.9006C22.3167 17.8516 22.5105 17.7628 22.5589 17.7627C22.641 17.7625 22.6959 17.8233 22.8031 18.0327C22.8613 18.1465 22.9174 18.2446 22.9277 18.2508C22.9492 18.2637 23.1729 18.6999 23.1732 18.7295C23.1733 18.7404 23.2437 18.8858 23.3295 19.0527C23.4153 19.2197 23.4856 19.3652 23.4857 19.3761C23.4858 19.3869 23.5614 19.5442 23.6536 19.7256C23.7458 19.9069 23.8213 20.0616 23.8213 20.0692C23.8213 20.0768 23.8408 20.1245 23.8647 20.175C23.8885 20.2256 23.9405 20.3597 23.9801 20.4729C24.0197 20.5862 24.0617 20.6911 24.0735 20.706C24.1288 20.7759 24.028 20.8017 23.4971 20.854C22.9955 20.9033 21.4163 21.224 21.1052 21.3398C21.0629 21.3555 20.9202 21.3966 20.457 21.5268C20.3463 21.5579 20.2256 21.5958 20.1887 21.6112C20.1518 21.6265 20.0311 21.6659 19.9205 21.6986C19.8098 21.7314 19.6992 21.7653 19.6746 21.774C19.65 21.7827 19.5544 21.8117 19.4622 21.8386C19.37 21.8654 19.2845 21.8947 19.2722 21.9037C19.2599 21.9127 19.2096 21.9323 19.1604 21.9473C19.1112 21.9623 19.0609 21.9819 19.0487 21.9907C19.0364 21.9994 18.9559 22.0287 18.8698 22.0558C18.7838 22.0828 18.7033 22.1121 18.691 22.1208C18.6787 22.1296 18.6284 22.1492 18.5792 22.1642C18.53 22.1792 18.4797 22.1987 18.4674 22.2075C18.4552 22.2163 18.4049 22.2362 18.3557 22.2515C18.3065 22.2669 18.2361 22.2959 18.1992 22.3159C18.1623 22.336 18.0949 22.3643 18.0494 22.3789C18.0038 22.3935 17.9183 22.4291 17.8594 22.4581C17.8004 22.4871 17.7428 22.511 17.7314 22.511C17.7037 22.5111 16.5912 23.0473 16.4787 23.1149C16.43 23.1441 16.274 23.226 16.1322 23.2968C15.9904 23.3676 15.8636 23.4343 15.8503 23.4449C15.837 23.4555 15.7403 23.5068 15.6354 23.5587C15.5304 23.6107 15.414 23.6743 15.3765 23.7001C15.3392 23.7259 15.2988 23.747 15.2869 23.747C15.2749 23.747 15.2525 23.7617 15.2371 23.7798C15.2216 23.7978 15.1463 23.8416 15.0696 23.8771C14.9929 23.9126 14.9176 23.9564 14.9022 23.9744C14.8664 23.992 14.6601 24.1277 14.6579 24.1243C14.6436 24.1411 14.6075 24.1606 14.5777 24.1679C14.5479 24.1752 14.4789 24.2103 14.4245 24.2459C14.37 24.2816 14.3162 24.3107 14.3049 24.3107C14.2937 24.3107 14.2555 24.34 14.2202 24.3758C14.1848 24.4116 14.1443 24.4408 14.0037 24.5276C13.9931 24.5276 13.8898 24.5929 13.7742 24.6728C13.6587 24.7526 13.5298 24.838 13.4877 24.8625C13.3782 24.9261 13.2989 24.9791 13.1545 25.085C13.0847 25.1362 13.0202 25.178 13.0111 25.178C12.9889 25.178 12.467 25.5632 12.1748 25.7952C12.0457 25.8976 11.8618 26.0404 11.7662 26.1124C11.6706 26.1844 11.2783 26.5435 10.8944 26.9103C10.5105 27.2773 10.1311 27.6346 10.0511 27.7044C9.97119 27.7743 9.89823 27.8435 9.88893 27.8582C9.86863 27.8903 9.73102 27.9751 9.69914 27.9751C9.68676 27.9751 9.66427 27.9607 9.6492 27.9431Z" fill="#18A94B" stroke="#18A94B" stroke-width="0.363618"/>
<path d="M26.5202 37.1233C26.3765 37.0904 26.2667 37.0229 26.1597 36.9013C26.1031 36.837 26.0567 36.7745 26.0567 36.7623C26.0567 36.7502 26.0424 36.7287 26.0249 36.7146C26.0074 36.7005 25.9626 36.6277 25.9254 36.5529C25.8882 36.478 25.8421 36.4042 25.7538 36.2787C25.6749 36.2151 25.5649 35.8922 25.5649 35.724C25.5649 35.6739 25.5845 35.5719 25.6084 35.4974C25.6426 35.3909 25.6753 35.3404 25.7605 35.2624C25.8977 35.1367 25.9637 35.049 26.0819 34.835C26.1339 34.7411 26.2148 34.617 26.2619 34.5593C26.3088 34.5016 26.3473 34.4403 26.3473 34.4231C26.3473 34.4059 26.3627 34.3861 26.3815 34.3791C26.4198 34.3649 26.599 34.1051 26.6463 33.9953C26.6632 33.956 26.7069 33.8904 26.7433 33.8495C26.7798 33.8087 26.8324 33.7302 26.8604 33.6751C26.8917 33.6134 26.9252 33.5759 26.9477 33.5775C26.9747 33.5794 26.9875 33.5548 26.997 33.4825C27.0041 33.4289 27.027 33.3375 27.048 33.2794C27.0738 33.2084 27.079 33.1656 27.0641 33.1481C27.0484 33.1298 27.0614 33.1112 27.1093 33.0837C27.1469 33.0622 27.1746 33.0293 27.172 33.0091C27.1658 32.9595 27.2067 32.869 27.2521 32.8325C27.2727 32.8159 27.3142 32.7553 27.3442 32.6979C27.3742 32.6405 27.4122 32.5935 27.4287 32.5935C27.459 32.5935 27.5768 32.396 27.5768 32.3451C27.5768 32.33 27.5969 32.2927 27.6215 32.2624C27.6461 32.232 27.6662 32.1811 27.6662 32.1492C27.6662 32.1077 27.7045 32.0523 27.8004 31.9556C27.8741 31.8811 27.9345 31.8126 27.9345 31.8034C27.9345 31.7942 27.9601 31.7571 27.9916 31.7209C28.023 31.6847 28.0428 31.6406 28.0358 31.6228C28.0288 31.605 28.0484 31.5582 28.0793 31.5189C28.1103 31.4795 28.1357 31.436 28.1357 31.4222C28.1357 31.3826 28.2667 31.2163 28.3385 31.1647C28.3744 31.1389 28.4039 31.1092 28.4039 31.0987C28.4039 31.0697 28.5211 30.9023 28.5414 30.9023C28.5512 30.9023 28.5738 30.875 28.5916 30.8416C28.6094 30.8083 28.6626 30.7422 28.71 30.6949C28.7573 30.6476 28.8085 30.5687 28.8237 30.5196C28.8413 30.4625 28.8673 30.4262 28.8957 30.419C28.9202 30.4128 28.946 30.3897 28.9531 30.3677C28.97 30.3152 28.9839 30.2937 29.0607 30.1997C29.0968 30.1555 29.1338 30.0759 29.1448 30.0183C29.1555 29.9619 29.185 29.8885 29.2103 29.8551C29.2355 29.8218 29.2583 29.773 29.2609 29.7467C29.2733 29.6227 29.3856 29.558 29.5887 29.558C29.7476 29.558 29.8534 29.6007 29.9344 29.6974C30.0095 29.7873 30.3997 30.5389 30.4277 30.6477C30.4692 30.7086 30.4942 30.8267 30.509 30.854C30.5235 30.8681 30.536 30.9452 30.537 31.0264C30.5389 31.1817 30.5342 31.1941 30.3531 31.5203C30.3067 31.6037 30.2444 31.7306 30.2146 31.8021C30.1848 31.8737 30.1324 31.9727 30.0981 32.0221C30.0638 32.0715 30.0358 32.1213 30.0358 32.1326C29.9957 32.1804 29.8715 32.3686 29.8569 32.3843C29.8569 32.3968 29.8333 32.4415 29.8044 32.484C29.6547 32.7038 29.5887 32.8089 29.5887 32.8277C29.5887 32.8391 29.5735 32.8607 29.5549 32.8756C29.5363 32.8906 29.4912 32.9637 29.4546 33.038C29.4179 33.1124 29.3728 33.1855 29.3542 33.2004C29.3356 33.2154 29.3204 33.2398 29.3204 33.2546C29.3204 33.2694 29.3016 33.3048 29.2785 33.3333C29.2556 33.3617 29.2023 33.4484 29.1602 33.5259C29.1182 33.6034 29.0566 33.7081 29.0233 33.7585C28.99 33.809 28.9628 33.856 28.9628 33.8631C28.9628 33.8701 28.9326 33.9184 28.8957 33.9704C28.8588 34.0224 28.8286 34.0712 28.8286 34.0788C28.8286 34.0864 28.7985 34.1352 28.7616 34.1872C28.7247 34.2392 28.6945 34.2907 28.6945 34.3016C28.6426 34.3642 28.496 34.5879 28.481 34.6109C28.462 34.6262 28.4273 34.6795 28.4039 34.7293C28.3805 34.7791 28.3458 34.8323 28.2605 34.9552C28.2432 34.974 28.1832 35.0753 28.1273 35.1802C28.0712 35.2851 28.0072 35.3973 27.9848 35.4295C27.9624 35.4618 27.9296 35.5174 27.912 35.5532C27.8944 35.589 27.8538 35.6573 27.8219 35.705C27.79 35.7527 27.7454 35.8307 27.7227 35.8784C27.7002 35.9261 27.6581 35.9954 27.6293 36.0323C27.6004 36.0692 27.5768 36.1067 27.5768 36.1157C27.5768 36.1246 27.5579 36.1578 27.5348 36.1895C27.5117 36.2212 27.435 36.3567 27.3643 36.4907C27.2936 36.6246 27.2219 36.7454 27.2051 36.7589C27.1882 36.7725 27.1744 36.7947 27.1744 36.8084C27.1744 36.8537 26.9698 37.061 26.8823 37.1042C26.7914 37.1493 26.6634 37.156 26.5202 37.1233Z" fill="#18A94B" stroke="#18A94B" stroke-width="0.363618"/>
<path d="M23.2568 38.2421C23.0194 38.1787 22.8794 38.0902 22.5652 37.8046C21.9895 37.2814 21.4895 36.8108 21.0138 36.3446C20.358 35.7018 20.2739 35.6209 19.7558 35.1348C19.0427 34.4657 18.5683 33.9482 18.4398 33.699C18.3328 33.4916 18.3155 33.2515 18.3911 33.0253C18.4647 32.8054 18.6239 32.5718 18.7003 32.5718C18.755 32.5718 19.2413 32.0688 19.2347 32.0189C19.2274 31.964 19.2543 31.9214 19.2962 31.9214C19.3534 31.9214 19.887 31.4873 19.887 31.4408C19.887 31.3685 20.194 31.0445 20.877 30.3954C21.31 29.984 21.8905 29.4308 22.1672 29.1662C22.619 28.7338 22.8977 28.4905 23.0274 28.4151C23.1624 28.3368 23.3811 28.2787 23.541 28.2787C23.6845 28.2787 23.9926 28.331 24.0956 28.3727C24.2909 28.4519 24.6041 28.757 24.7516 29.0116C24.8667 29.2104 24.9085 29.5811 24.8379 29.7775C24.7875 29.9179 24.7429 30.0039 24.7048 30.0346C24.6947 30.0566 24.5853 30.213 24.5814 30.2228C24.5814 30.2628 22.7686 32.0171 22.0981 32.626C21.8698 32.8334 21.5412 33.2098 21.5412 33.2641C21.5412 33.3872 21.9776 33.8608 22.6662 34.4851C22.9854 34.7744 23.3019 35.0745 23.3695 35.1521C23.4372 35.2296 23.7131 35.5019 23.9826 35.7573C24.524 36.2702 24.6587 36.4244 24.7605 36.6482C24.785 36.7018 24.8153 36.7631 24.8279 36.7844C24.8652 36.847 24.881 37.2096 24.8522 37.3401C24.8011 37.5708 24.5864 37.9208 24.4213 38.0422C24.3332 38.107 24.0941 38.2158 23.9641 38.2501C23.8409 38.2826 23.3895 38.2775 23.2568 38.2421Z" fill="#18A94B" stroke="#18A94B" stroke-width="0.363618"/>
<path d="M32.3273 38.2605C31.8673 38.1965 31.644 38.0401 31.4165 37.6225C31.2867 37.3845 31.2559 37.2698 31.2567 37.0277C31.2573 36.8307 31.2638 36.7975 31.3278 36.6645C31.3665 36.584 31.439 36.4657 31.489 36.4015C31.5389 36.3374 32.0583 35.8324 32.6432 35.2794C33.5506 34.4215 33.7184 34.2721 33.7866 34.2605C33.8437 34.2509 33.8957 34.2167 33.9688 34.1405C34.4348 33.6542 34.6405 33.4087 34.6407 33.3383C34.6411 33.2485 34.5389 33.1025 34.3392 32.9079C34.0773 32.6527 32.842 31.4911 32.5386 31.2147C32.2497 30.9516 31.6176 30.3055 31.5968 30.252C31.5884 30.2306 31.5705 30.2063 31.5568 30.1981C31.5431 30.1899 31.5076 30.1474 31.4778 30.1037C31.448 30.06 31.393 29.9824 31.3556 29.9312C31.2748 29.8206 31.2444 29.7067 31.2437 29.512C31.2429 29.2925 31.2595 29.2428 31.3549 29.1786C31.4093 29.1421 31.444 29.0991 31.4525 29.0578C31.4609 29.0171 31.4852 28.9864 31.5189 28.974C31.5482 28.9632 31.5962 28.9229 31.6256 28.8844C31.655 28.8459 31.7218 28.7722 31.7741 28.7205C31.8263 28.6687 31.8691 28.6167 31.8691 28.605C31.8691 28.5932 31.8992 28.5684 31.9361 28.5498C31.9811 28.5273 32.0032 28.4998 32.0032 28.4665C32.0032 28.3867 32.1419 28.3259 32.3774 28.3022C32.8039 28.2594 32.8977 28.3102 33.7605 29.0514C34.0059 29.2623 35.285 30.4699 36.1587 31.3157C36.4489 31.5967 36.7618 31.884 36.854 31.9542C37.0506 32.1038 37.4129 32.4537 37.4129 32.494C37.4529 32.5564 37.5771 32.7341 37.5917 32.751C37.5917 32.7624 37.6223 32.8156 37.6597 32.8694C37.7405 32.9856 37.7929 33.1654 37.7929 33.3268C37.7929 33.4771 37.7344 33.6976 37.6793 33.755C37.6557 33.7797 37.6363 33.8089 37.6362 33.8201C37.6357 33.8651 37.1348 34.3634 35.8481 35.5988C35.1042 36.313 34.2492 37.1369 33.948 37.4297C33.6468 37.7226 33.355 37.9914 33.2997 38.0271C33.2444 38.0628 33.1086 38.1302 32.9979 38.177C32.8177 38.2531 32.7758 38.2624 32.5956 38.266C32.4849 38.2681 32.3642 38.2657 32.3273 38.2605Z" fill="#18A94B" stroke="#18A94B" stroke-width="0.363618"/>
<path d="M25.7681 35.1885C25.8349 35.0953 25.9098 34.9832 25.9347 34.9391C25.9596 34.8951 26.0074 34.8179 26.0409 34.7674C26.0744 34.7169 26.1018 34.669 26.1018 34.6607C26.1018 34.6525 26.1156 34.6303 26.1324 34.6115C26.1493 34.5927 26.1907 34.5285 26.2244 34.4689C26.3388 34.2665 26.401 34.1655 26.4526 34.0982C26.481 34.0613 26.5042 34.0237 26.5042 34.0146C26.5042 34.0056 26.5344 33.9548 26.5713 33.9018C26.6081 33.8487 26.6383 33.7999 26.6383 33.7934C26.6383 33.7867 26.6685 33.7379 26.7054 33.6849C26.7423 33.6319 26.7724 33.5831 26.7724 33.5765C26.7724 33.5699 26.8026 33.5211 26.8395 33.4681C26.8764 33.4151 26.9066 33.3636 26.9066 33.3538C26.9066 33.3439 26.9218 33.3235 26.9405 33.3085C26.9592 33.2935 26.9908 33.2478 27.0107 33.207C27.0651 33.0958 27.0947 33.1513 27.0488 33.2783C27.0276 33.3368 27.0044 33.4287 26.9974 33.4823C26.9878 33.5546 26.9751 33.5792 26.9481 33.5773C26.9256 33.5757 26.8921 33.6131 26.8607 33.6748C26.8328 33.73 26.7801 33.8084 26.7436 33.8493C26.7073 33.8902 26.6636 33.9558 26.6467 33.995C26.5994 34.1049 26.4201 34.3646 26.3819 34.3789C26.3631 34.3859 26.3477 34.4057 26.3477 34.4228C26.3477 34.4401 26.3092 34.5013 26.2622 34.5591C26.2152 34.6168 26.1343 34.7409 26.0823 34.8348C25.9767 35.026 25.9009 35.1317 25.8004 35.2277C25.659 35.3629 25.6505 35.3526 25.7681 35.1885Z" fill="#1F9B4E" stroke="#1F9B4E" stroke-width="0.363618"/>
<path d="M19.3058 31.8889C19.3212 31.8709 19.4956 31.7075 19.6934 31.5257C19.9804 31.262 20.0364 31.2182 19.9701 31.309C19.9244 31.3716 19.8869 31.4305 19.8869 31.4399C19.8869 31.4833 19.3558 31.9215 19.3032 31.9215C19.2855 31.9215 19.2863 31.9117 19.3058 31.8889Z" fill="#1F9B4E" stroke="#1F9B4E" stroke-width="0.363618"/>
<path d="M28.2031 31.2823C28.2031 31.2772 28.2333 31.2296 28.2702 31.1765C28.3071 31.1235 28.3372 31.0726 28.3372 31.0633C28.3372 31.0541 28.3513 31.0311 28.3685 31.0123C28.3858 30.9935 28.4335 30.9186 28.4747 30.8459C28.5159 30.7733 28.5776 30.673 28.6118 30.623C28.646 30.5731 28.6945 30.4941 28.7195 30.4476C28.7444 30.4011 28.7793 30.3515 28.8649 30.2281C28.8846 30.2123 28.9099 30.1793 28.921 30.155C28.9322 30.1306 28.981 30.0522 29.0296 29.9806C29.0781 29.9091 29.1339 29.82 29.1535 29.7827C29.1939 29.7059 29.2985 29.6027 29.2594 29.739C29.2594 29.7674 29.2381 29.8189 29.2121 29.8532C29.186 29.8875 29.1559 29.9617 29.1452 30.0182C29.1342 30.0757 29.0972 30.1554 29.0611 30.1996C28.9843 30.2935 28.9704 30.3151 28.9535 30.3676C28.9464 30.3896 28.9206 30.4127 28.8961 30.4189C28.8677 30.4261 28.8417 30.4623 28.8241 30.5194C28.8089 30.5686 28.7577 30.6475 28.7104 30.6948C28.663 30.7421 28.6098 30.8081 28.592 30.8415C28.5742 30.8748 28.5508 30.9022 28.54 30.9022C28.5227 30.9022 28.4308 31.0296 28.4072 31.0865C28.3971 31.1108 28.2031 31.297 28.2031 31.2823Z" fill="#1F9B4E" stroke="#1F9B4E" stroke-width="0.363618"/>
<path d="M27.2642 32.8003C27.2642 32.7871 27.3688 32.6048 27.4354 32.5018C27.4641 32.4573 27.4877 32.4149 27.4877 32.4074C27.4877 32.3999 27.5159 32.3534 27.5502 32.304C27.5846 32.2546 27.6214 32.1946 27.6319 32.1707C27.6491 32.1318 27.652 32.1313 27.6605 32.1653C27.6656 32.1862 27.6489 32.2289 27.6235 32.2604C27.598 32.2918 27.5771 32.33 27.5771 32.3451C27.5771 32.396 27.4594 32.5936 27.429 32.5936C27.4125 32.5936 27.3736 32.6423 27.3424 32.702C27.2927 32.797 27.2642 32.833 27.2642 32.8003Z" fill="#1F9B4E" stroke="#1F9B4E" stroke-width="0.363618"/>
<path d="M27.759 31.9479C27.7882 31.8969 27.8497 31.8064 27.8958 31.7469C27.9419 31.6873 27.9797 31.6305 27.9797 31.6206C28.0456 31.5193 28.0605 31.5679 28.0364 31.6227C28.0434 31.6405 28.0234 31.6846 27.9921 31.7208C27.9606 31.757 27.935 31.7953 27.935 31.806C27.935 31.8166 27.8835 31.8737 27.8205 31.9329L27.7061 32.0405L27.759 31.9479Z" fill="#1F9B4E" stroke="#1F9B4E" stroke-width="0.363618"/>
<path d="M27.1031 33.0487C27.1436 32.9798 27.1746 32.9646 27.1746 33.0138C27.1746 33.0303 27.15 33.0595 27.1199 33.0786L27.0652 33.1134L27.1031 33.0487Z" fill="#1F9B4E" stroke="#1F9B4E" stroke-width="0.363618"/>
<path d="M18.6059 32.616C18.6482 32.5382 19.1862 31.9863 19.2198 31.9863C19.2304 31.9863 19.239 32.0037 19.239 32.025C19.239 32.0738 18.7458 32.5718 18.6974 32.5718C18.6776 32.5718 18.6398 32.5986 18.6133 32.6314L18.5652 32.691L18.6059 32.616Z" fill="#1F9B4E" stroke="#1F9B4E" stroke-width="0.363618"/>
<path d="M33.7364 34.2451C33.7481 34.2353 33.9136 34.0921 34.1041 33.9268C34.2947 33.7615 34.4053 33.6743 34.35 33.7331C34.2947 33.7918 34.2135 33.879 34.1694 33.9267C33.9267 34.19 33.8422 34.2628 33.7789 34.2628C33.7435 34.2628 33.7246 34.2549 33.7364 34.2451Z" fill="#1F9B4E" stroke="#1F9B4E" stroke-width="0.363618"/>
</svg>
