<svg width="94" height="98" viewBox="0 0 94 98" fill="none" xmlns="http://www.w3.org/2000/svg">
<path d="M58.9665 41.4921C59.0647 41.1704 59.1901 40.9919 59.6093 40.578C60.0035 40.1885 60.4284 39.8658 60.4796 39.9168C60.4893 39.9265 60.45 39.9598 60.3922 39.9906C60.327 40.0256 60.2873 40.0833 60.2873 40.1436C60.2873 40.2087 60.246 40.2618 60.1613 40.3056C60.092 40.3415 60.0353 40.3895 60.0353 40.4123C60.0353 40.4352 59.9549 40.5359 59.8568 40.6361C59.7587 40.7363 59.6331 40.8791 59.5779 40.9537C59.5227 41.0282 59.4334 41.1059 59.3796 41.1263C59.3227 41.148 59.27 41.2126 59.2539 41.2806C59.2279 41.3894 59.0501 41.5816 58.972 41.5851C58.9531 41.5859 58.9506 41.5441 58.9665 41.4921Z" fill="#1F9B4E" stroke="#1F9B4E"/>
<path d="M28.4934 96.7729C27.6741 96.7341 26.9009 96.6154 26.5824 96.4795C26.5362 96.4598 26.385 96.4124 26.2464 96.3742C26.1078 96.3359 25.9151 96.2685 25.8183 96.2246C25.7213 96.1805 25.6289 96.1445 25.613 96.1445C25.5739 96.1445 24.9399 95.825 24.7526 95.7107C24.3888 95.4891 24.1498 95.2707 23.6458 94.7002C23.3497 94.365 23.0802 94.0379 23.0467 93.9734C23.0132 93.9088 22.9414 93.798 22.8872 93.7269C22.7919 93.6018 22.7709 93.5956 22.2076 93.5246C21.5387 93.4403 21.1572 93.3754 20.4504 93.2263C20.1732 93.1677 19.7574 93.0913 19.5264 93.0564C19.0272 92.9811 18.1905 92.7793 17.8674 92.6563C17.7403 92.608 17.5797 92.5481 17.5104 92.5233C17.4411 92.4986 17.3655 92.4647 17.3424 92.448C17.3193 92.4313 17.1681 92.3748 17.0064 92.3225C16.8447 92.2702 16.6935 92.2134 16.6704 92.1963C16.6473 92.1794 16.5528 92.1417 16.4604 92.1125C16.368 92.0834 16.2735 92.0454 16.2504 92.0282C16.2273 92.0109 16.1612 91.9827 16.1034 91.9654C15.9346 91.915 14.5449 91.224 14.3544 91.0957C14.2586 91.0313 14.1641 90.9773 14.1444 90.9757C14.1245 90.9741 14.0233 90.9081 13.9194 90.8289C13.8155 90.7497 13.69 90.6671 13.6406 90.6454C13.5144 90.5902 12.6594 89.7328 12.6594 89.6616C12.6594 89.6292 12.6313 89.5794 12.5968 89.5509C12.5625 89.5224 12.4561 89.3402 12.3604 89.1463C12.1567 88.7333 12.1059 88.4083 12.1641 87.8915C12.2334 87.2762 12.3793 86.9793 12.6804 86.8407C13.2383 86.5838 13.1166 86.5976 15.0744 86.569C16.0677 86.5545 33.5502 86.5462 53.9244 86.5506C82.8593 86.5568 91.0327 86.5698 91.2624 86.6099C91.6521 86.6778 91.9332 86.812 92.1749 87.0455C92.4864 87.3463 92.564 87.5528 92.5641 88.0805C92.5641 88.5251 92.5485 88.5904 92.3234 89.0885C92.1018 89.5791 91.3672 90.427 90.8501 90.7895C90.7183 90.8819 90.5021 91.0372 90.3697 91.1347C90.2374 91.2321 90.0438 91.3542 89.9397 91.4061C89.8356 91.4579 89.6748 91.5497 89.5824 91.6102C89.49 91.6707 89.3388 91.75 89.2464 91.7863C89.154 91.8227 88.9555 91.908 88.8054 91.9759C88.6553 92.0439 88.4379 92.1325 88.3224 92.1729C88.2069 92.2133 88.0557 92.2713 87.9864 92.3016C87.9171 92.3319 87.6903 92.4071 87.4824 92.4687C87.2745 92.5302 87.0716 92.5981 86.7573 92.6979C86.7172 92.7196 86.5048 92.7773 86.2854 92.8261C86.066 92.8748 85.8203 92.9327 85.7394 92.9545C85.6013 92.9918 84.9408 93.1137 84.3744 93.2064C84.2358 93.2291 83.6554 93.324 83.0846 93.4174C82.0707 93.5833 81.7914 93.6592 81.7914 93.7686C81.7914 93.7982 81.7016 93.9433 81.5919 94.091C81.4822 94.2387 81.3611 94.4081 81.3228 94.4676C81.2281 94.6145 80.4276 95.3963 80.2034 95.5608C79.9649 95.7356 79.1537 96.146 78.8094 96.266C78.6593 96.3182 78.4797 96.3856 78.4104 96.4157C78.1327 96.5364 77.6509 96.6625 77.1714 96.7403C76.927 96.78 71.5117 96.7928 53.0004 96.7976C39.8796 96.801 28.8515 96.7899 28.4934 96.7729Z" fill="#18A94B" stroke="#18A94B"/>
<path d="M44.0228 84.3542C44.0979 84.3448 44.2207 84.3448 44.2958 84.3542C44.3709 84.3635 44.3095 84.3711 44.1593 84.3711C44.0091 84.3711 43.9477 84.3635 44.0228 84.3542Z" fill="#001004" stroke="#001004"/>
<path d="M41.2426 84.3531C39.7454 84.3466 38.673 84.326 38.659 84.3034C38.646 84.2821 38.1723 84.2525 37.6067 84.2374C36.4337 84.2062 35.6035 84.1204 35.5073 84.0206C35.4505 83.9617 35.4649 83.9582 35.6543 83.9853C36.3688 84.0878 37.7751 84.146 40.6231 84.1908C41.1918 84.1997 41.4918 84.2203 41.5239 84.2525C41.5578 84.2863 41.9011 84.3006 42.6743 84.3006C43.3637 84.3006 43.7861 84.3164 43.8023 84.3426C43.8166 84.3657 43.8225 84.3801 43.8153 84.3745C43.8081 84.3688 42.6504 84.3593 41.2426 84.3531Z" fill="#001004" stroke="#001004"/>
<path d="M66.8813 84.3336C66.8813 84.3155 67.4625 84.3033 68.1728 84.3064C68.8832 84.3095 69.4265 84.3182 69.3803 84.3255C69.1872 84.3565 66.8813 84.3638 66.8813 84.3336Z" fill="#3C582F" stroke="#3C582F"/>
<path d="M46.4974 84.3995C46.4937 84.3961 45.8887 84.3866 45.153 84.3785C44.4174 84.3704 43.8068 84.3495 43.7961 84.3321C43.7853 84.3147 43.2807 84.3006 42.6745 84.3006C41.9014 84.3006 41.558 84.2863 41.5241 84.2525C41.492 84.2203 41.192 84.1997 40.6233 84.1908C37.7753 84.146 36.3691 84.0878 35.6546 83.9853C35.4651 83.9582 35.4507 83.9617 35.5076 84.0207C35.6037 84.1205 36.4339 84.2062 37.607 84.2374C38.3239 84.2565 38.6446 84.2798 38.6659 84.3142C38.7158 84.3949 36.5407 84.4028 36.0128 84.3238C35.2693 84.2127 34.7652 83.8936 34.2511 83.209C33.8279 82.6452 33.6596 82.1921 33.6596 81.6162C33.6596 81.1973 33.7937 80.6811 33.9787 80.388C34.0342 80.3002 34.0796 80.2125 34.0796 80.1933C34.0796 80.1159 34.6828 79.5104 34.8885 79.3811C35.2151 79.1759 35.2632 79.1526 35.555 79.0587C36.1769 78.8585 35.921 78.8661 42.8608 78.8423L49.4371 78.8196L49.5913 78.702C49.6761 78.6373 49.7456 78.5537 49.7456 78.5163C49.7456 78.4789 49.7779 78.4125 49.8175 78.3688C49.8821 78.2975 49.8928 78.0889 49.9241 76.3075C49.9699 73.6867 49.9571 72.9374 49.8632 72.7716C49.824 72.7023 49.7732 72.605 49.7503 72.5552C49.7275 72.5055 49.644 72.4156 49.5648 72.3552L49.4209 72.2454L38.1907 72.229C31.3479 72.2189 26.8375 72.1968 26.6456 72.1721C25.93 72.0804 25.1355 71.8874 24.7674 71.7158C24.68 71.6752 24.4901 71.57 24.3453 71.4822C24.2006 71.3945 24.0682 71.3226 24.0513 71.3225C24.0343 71.3224 23.9209 71.2468 23.7992 71.1545C23.6774 71.0622 23.5662 70.9866 23.552 70.9866C23.4903 70.9866 22.7888 70.3101 22.5303 70.0015C22.1986 69.6054 22.0712 69.4115 21.8292 68.934C21.5412 68.3654 21.366 67.7694 21.3152 67.1856C21.2168 66.0521 21.1871 62.7151 21.1761 51.5616L21.1646 39.8436L21.2559 39.6546C21.3122 39.538 21.5291 39.2886 21.8229 39.0029C22.8701 37.9842 24.9687 36.1266 25.0722 36.1266C25.0866 36.1266 25.1771 36.0609 25.2734 35.9806C25.6758 35.645 26.3082 35.2026 26.3855 35.2026C26.4312 35.2026 26.4801 35.2327 26.4942 35.2695C26.5083 35.3063 26.5196 41.969 26.5194 50.0755C26.519 60.6065 26.5321 64.8713 26.5648 65.0132C26.6815 65.5166 26.8928 65.8267 27.387 66.2196C27.811 66.5567 27.8795 66.5969 28.1738 66.6811C28.3607 66.7346 30.9876 66.7447 48.3596 66.7588C69.4016 66.776 77.3887 66.7505 77.7176 66.6649C78.0147 66.5876 78.1396 66.5157 78.4221 66.2601C78.8185 65.9014 79.0496 65.5404 79.2138 65.0229C79.3802 64.4987 79.4055 64.1153 79.3763 62.5656C79.3615 61.7802 79.3433 55.0613 79.336 47.6346C79.3257 37.2736 79.3109 34.0925 79.2721 33.9636C79.0813 33.3283 78.7119 32.8995 78.1032 32.6067C77.6768 32.4016 78.4945 32.4097 58.7756 32.4157C48.3495 32.4188 38.5698 32.441 36.3686 32.4666C32.5039 32.5114 31.4979 32.4944 31.3622 32.3817C31.261 32.2977 31.305 32.1844 31.4861 32.0627C31.6805 31.9319 33.112 31.2126 33.1779 31.2126C33.2003 31.2125 33.5011 31.071 33.8465 30.8981C34.1919 30.7251 34.5391 30.5622 34.6182 30.5362C34.6972 30.5101 34.8607 30.4367 34.9814 30.3732C35.1021 30.3097 35.388 30.1962 35.6167 30.121C35.8454 30.0458 36.0505 29.9677 36.0724 29.9474C36.178 29.9289 36.422 29.8318 36.4298 29.8266C36.4723 29.8266 36.6101 29.7725 36.7358 29.7063C36.8616 29.6401 37.2652 29.4863 37.6326 29.3646C38 29.2429 38.3195 29.1295 38.3426 29.1125C38.3657 29.0954 38.4602 29.0577 38.5526 29.0286C38.645 28.9996 38.7395 28.9616 38.7626 28.9443C38.7857 28.927 39.003 28.8512 39.2456 28.7758C39.4881 28.7004 39.7244 28.624 39.7706 28.6061C39.8168 28.5881 40.0152 28.5315 40.2116 28.4802C40.8242 28.3202 40.9206 28.2916 40.9515 28.2606C41.04 28.2546 41.2983 28.1497 41.3213 28.1466C41.3745 28.1466 41.5676 28.1094 41.7503 28.0639C42.11 27.9744 43.0459 27.7717 43.7186 27.6376C43.9496 27.5916 44.1669 27.5417 44.2016 27.5269C44.5142 27.3933 45.0079 27.3864 57.0326 27.3449C71.3448 27.2954 77.765 27.3128 78.5996 27.4037C79.5411 27.5062 80.2272 27.7055 81.1195 28.1358C81.2928 28.2193 81.493 28.3316 81.5645 28.3852C81.636 28.4387 81.7063 28.4826 81.7207 28.4826C81.7855 28.4826 82.295 28.8657 82.6128 29.1534C83.6129 30.0585 84.3032 31.3253 84.5245 32.6616C84.5513 32.8233 84.5888 33.0028 84.6077 33.0606C84.7298 33.4317 84.7334 34.0007 84.7142 50.1126C84.7033 59.11 84.6825 66.6606 84.6678 66.8916C84.6531 67.1226 84.6258 67.3494 84.6071 67.3956C84.5884 67.4418 84.5505 67.5647 84.523 67.6686C84.3524 68.3125 84.1303 68.8453 83.8949 69.176C83.8469 69.2434 83.8073 69.3145 83.807 69.3341C83.8063 69.3722 83.5461 69.7192 83.1872 70.1607C82.8642 70.5581 82.1801 71.1237 81.7285 71.3667C81.5899 71.4414 81.4482 71.5261 81.4135 71.555C81.2808 71.6657 80.4899 71.9433 80.1997 71.9811C80.0934 71.995 79.9876 72.0201 79.9645 72.037C79.9148 72.0733 79.6628 72.1103 79.0616 72.1695C78.7753 72.1977 74.6718 72.2187 67.3672 72.2295L56.1138 72.2461L55.9919 72.3619C55.751 72.5908 55.7567 72.5377 55.7531 74.6023C55.7513 75.6514 55.7317 76.6797 55.7095 76.8876C55.6873 77.0955 55.6687 77.4777 55.6683 77.737C55.6676 78.1572 55.6785 78.2278 55.7682 78.388C55.8236 78.4867 55.9344 78.6208 56.0146 78.6859L56.1603 78.8042L58.9273 78.8024C60.4493 78.8015 63.4428 78.8182 65.5796 78.8396C69.2727 78.8768 69.4853 78.883 69.8846 78.9664C70.1348 79.0186 70.4318 79.1163 70.6196 79.2081C71.2226 79.5031 71.7935 80.2203 71.996 80.937C72.0765 81.2225 72.0826 82.0934 72.0053 82.2961C71.8275 82.7626 71.5792 83.176 71.2969 83.4752C70.9069 83.8886 70.2075 84.3006 69.8956 84.3006C69.8081 84.3006 69.6989 84.3241 69.653 84.3527C69.5866 84.3942 69.5525 84.3942 69.4861 84.3527C69.3776 84.2849 66.8964 84.277 66.8739 84.3444C66.8591 84.3889 60.9947 84.3951 52.8956 84.3593C50.8281 84.3502 48.5443 84.3568 47.8204 84.3742C47.0967 84.3915 46.5013 84.4029 46.4974 84.3995Z" fill="#18A94B" stroke="#18A94B"/>
<path d="M8.42343 39.6495C7.87902 39.6128 7.11857 39.4432 6.75812 39.2782C6.71192 39.2571 6.56072 39.2087 6.42212 39.1705C6.15332 39.0967 6.07285 39.0648 5.64512 38.8627C5.33273 38.7152 5.11517 38.5922 4.85158 38.4143C4.75019 38.3457 4.63645 38.2707 4.59899 38.2476C4.25828 38.0376 3.22853 37.0651 3.16124 36.8897C3.14638 36.8512 3.08497 36.7738 3.02474 36.7178C2.96443 36.6618 2.91512 36.5938 2.74712 36.3257C2.74712 36.3038 2.69504 36.2074 2.63129 36.1117C2.42204 35.7971 2.2459 35.4009 2.03128 34.7616C1.71308 33.814 1.6117 33.1337 1.6962 32.5146C1.723 32.3183 1.76189 31.9875 1.78247 31.7796C1.83304 31.2702 1.88915 30.9784 2.00952 30.5993C2.07731 30.386 2.10259 30.2312 2.08613 30.1301C2.06244 29.9841 1.41732 28.6609 1.30476 28.5275C1.23697 28.4472 1.13701 28.2252 1.06679 27.9996C1.03806 27.9072 0.97926 27.7525 0.936 27.6558C0.775056 27.2954 0.581688 26.4015 0.51894 25.7277C0.470472 25.2062 0.517931 24.3503 0.628139 23.7576C0.662579 23.5728 0.70248 23.3313 0.716928 23.2209C0.731292 23.1105 0.759347 23.0101 0.779171 22.9979C0.798911 22.9857 0.815124 22.9378 0.815124 22.8915C0.815124 22.8071 0.842508 22.7104 1.07544 21.9726C1.21715 21.5235 1.68948 20.5268 1.88134 20.2716C1.95089 20.1792 2.10318 20.0083 2.21994 19.8919C2.55384 19.5587 2.67379 19.4118 2.93167 19.0203C3.06406 18.8192 3.19073 18.6546 3.21316 18.6546C3.2355 18.6546 3.26734 18.6183 3.28397 18.574C3.3321 18.4454 3.73026 18.0496 4.19083 17.6728C4.59571 17.3415 5.10643 16.9746 5.16271 16.9746C5.17724 16.9746 5.26796 16.9215 5.36457 16.8566C5.64269 16.6696 6.48185 16.2727 6.75812 16.1975C6.89672 16.1597 7.03843 16.1183 7.07312 16.1054C7.14242 16.0794 7.14444 16.0793 7.67322 16.0316C7.99696 16.0025 8.0524 16.0075 8.12472 16.073C8.17 16.114 8.20712 16.1827 8.20712 16.2257C8.20712 16.2687 8.22325 16.3365 8.24291 16.3767C8.26265 16.4168 8.36034 16.7048 8.45988 17.0166C8.55951 17.3284 8.65426 17.6025 8.67055 17.6256C8.68685 17.6487 8.72381 17.7432 8.7527 17.8356C8.7816 17.928 8.82184 18.0216 8.84216 18.0435C8.86258 18.0654 8.87912 18.1113 8.87912 18.1452C8.87912 18.2204 9.60707 19.7004 9.7597 19.9356C9.81967 20.028 9.89586 20.1603 9.92913 20.2296C9.96239 20.2989 10.0421 20.4347 10.1064 20.5312C10.1705 20.6278 10.2231 20.7167 10.2231 20.7289C10.2231 20.7998 10.5916 21.2266 10.6988 21.2801C10.8457 21.3534 10.9238 21.3099 10.8609 21.1901C10.8384 21.1469 10.7764 20.9639 10.7233 20.7835C10.6702 20.6031 10.6115 20.446 10.52 20.1765C10.413 19.9772 10.2641 19.0366 10.1394 17.7726C10.0951 17.3236 9.99868 15.728 10.0113 15.6516C10.015 15.6285 10.0261 15.4773 10.0359 15.3156C10.064 14.8497 10.1402 14.0767 10.183 13.8246C10.3002 13.1328 10.4052 12.6229 10.438 12.5877C10.4585 12.5658 10.4751 12.4892 10.4751 12.4176C10.4751 12.346 10.4917 12.2694 10.5119 12.2475C10.5322 12.2256 10.5914 12.0753 10.6435 11.9136C10.6956 11.7519 10.7521 11.6007 10.7688 11.5776C10.7856 11.5545 10.8109 11.4742 10.8252 11.3991C10.8394 11.324 10.8893 11.1786 10.936 11.0759C10.9828 10.9732 11.0211 10.8745 11.0211 10.8567C11.0211 10.8085 11.8252 9.19411 11.8858 9.12061C11.9144 9.08591 11.9916 8.95336 12.0574 8.82602C12.1233 8.69859 12.3093 8.39837 12.4706 8.15889C12.6321 7.91941 12.783 7.69328 12.8061 7.65632C13.0641 7.24405 14.3052 5.92079 14.8851 5.43973C15.2906 5.10347 16.143 4.45861 16.1821 4.45861C16.2629 4.38334 16.6359 4.15007 16.6585 4.12261C16.6797 4.12261 16.776 4.0691 16.8726 4.00366C16.9691 3.93823 17.0764 3.87204 17.1111 3.8565C17.1458 3.84096 17.2686 3.77258 17.3841 3.70454C17.7132 3.51058 18.691 3.03061 18.7569 3.03061C18.7896 3.03061 18.8343 3.01406 18.8562 2.99365C18.8782 2.97332 18.9717 2.93308 19.0641 2.90419C19.1565 2.87529 19.251 2.83774 19.2741 2.82078C19.326 2.78264 20.4001 2.43337 20.7441 2.3429C21.0754 2.25571 21.6743 2.13349 22.3442 2.01639C22.8089 1.93516 23.0327 1.92181 23.9151 1.92248C25.1314 1.92357 25.4039 1.95978 27.2331 2.36306C27.4525 2.41153 27.6888 2.46806 27.7581 2.48872C28.1237 2.59792 28.6656 2.79373 28.8543 2.88503C28.9721 2.94199 29.0825 2.98861 29.0995 2.98861C29.1166 2.98861 29.2471 3.04254 29.3897 3.10856C29.5322 3.17458 29.6959 3.24346 29.7535 3.26169C29.811 3.28 29.9243 3.33628 30.0051 3.38685C30.0859 3.4375 30.2466 3.52713 30.3621 3.5861C30.9569 3.88942 31.1222 3.98712 31.287 4.13218C31.386 4.21929 31.4904 4.29061 31.519 4.29061C31.5475 4.29061 31.9037 3.95519 32.3105 3.54511C32.7173 3.13502 33.1442 2.72401 33.2593 2.63161C33.5795 2.37448 34.2848 1.85461 34.3137 1.85461C34.3277 1.85461 34.3917 1.81723 34.4559 1.77153C34.52 1.72583 34.712 1.61445 34.8823 1.52398C35.0528 1.43351 35.2488 1.32944 35.3181 1.29265C35.7999 1.03687 37.0346 0.652819 37.7121 0.547903C38.1325 0.482803 39.3589 0.4844 39.8331 0.550592C40.2409 0.607544 40.8428 0.75303 41.1582 0.883398C41.1802 0.903642 41.3304 0.962863 41.4921 1.01503C41.6538 1.06711 41.805 1.12372 41.8281 1.14078C41.8512 1.15774 41.9448 1.19571 42.036 1.22519C42.1272 1.25451 42.2973 1.3354 42.414 1.40479C42.5307 1.47417 42.73 1.58774 42.8571 1.65712C42.9842 1.72659 43.1383 1.81832 43.1996 1.86107C43.2609 1.90366 43.3226 1.93861 43.3365 1.93861C43.3691 1.93861 43.7348 2.19388 44.0331 2.4248C44.3619 2.67923 44.9853 3.32864 45.2862 3.73024C45.545 4.07557 45.7227 4.24861 45.8185 4.24861C45.8471 4.24861 45.958 4.2098 46.065 4.16251C46.5432 3.951 48.0278 3.87464 49.0161 4.0108C49.5172 4.07985 50.3556 4.28574 50.6414 4.40989C50.7375 4.45164 50.9012 4.52102 51.0051 4.56411C51.109 4.6072 51.2754 4.69565 51.3747 4.7605C51.474 4.82552 51.5645 4.87861 51.5756 4.87861C51.6146 4.87861 52.173 5.25904 52.2239 5.32045C52.2522 5.35464 52.3006 5.38261 52.3312 5.38261C52.362 5.38261 52.639 5.63301 52.9469 5.93911C53.5479 6.53651 53.9164 7.02103 54.2601 7.6659C54.3756 7.88262 54.4913 8.0859 54.5172 8.11773C54.543 8.14957 54.588 8.25121 54.6171 8.34361C54.6463 8.43601 54.6842 8.53051 54.7015 8.55361C54.7187 8.57671 54.7467 8.64281 54.7637 8.70061C54.7807 8.7584 54.8183 8.86231 54.8473 8.93161C55.057 9.43174 55.2658 10.3226 55.3544 11.0946C55.4176 11.6456 55.4143 11.822 55.3276 12.4806C55.27 12.9185 54.9521 14.1624 54.7866 14.5977C54.7321 14.741 54.3745 15.5032 54.3216 15.5886C54.3002 15.6233 54.2454 15.7288 54.2 15.8232C54.1545 15.9176 54.088 16.0192 54.0522 16.0489C54.0164 16.0786 53.9871 16.1202 53.9871 16.1414C53.9871 16.215 53.4034 16.9563 53.0386 17.3457C52.606 17.8076 51.4182 18.8226 51.0797 18.9906C51.0586 18.9906 50.9623 19.0442 50.8657 19.1096C50.7692 19.1749 50.6618 19.2413 50.6271 19.2571C50.5924 19.2728 50.4602 19.3436 50.3331 19.4143C50.206 19.485 49.9603 19.6151 49.7871 19.7033C48.9472 20.1308 47.5111 20.4242 46.2591 20.4236L45.6921 20.4234L45.4597 20.1664C45.3318 20.0252 45.1867 19.8304 45.1371 19.7336C45.0188 19.5028 44.8735 19.172 44.8717 19.1295C44.8709 19.1108 44.8338 19.02 44.7891 18.9276C44.7444 18.8352 44.7074 18.7444 44.7066 18.7258C44.7058 18.7072 44.6674 18.6092 44.6213 18.5079C44.5206 18.2869 44.4111 17.8811 44.4111 17.7289C44.4111 17.618 44.5613 17.2836 44.6708 17.1511C44.7032 17.1118 44.7565 17.0229 44.7891 16.9536C44.8218 16.8843 44.8717 16.7992 44.9 16.7644C44.9813 16.6646 45.491 15.6477 45.5473 15.4732C45.5753 15.3866 45.6138 15.2957 45.6331 15.2712C45.6522 15.2468 45.7167 14.9916 45.7764 14.7042C45.8359 14.4168 45.9151 14.0532 45.9521 13.8962C46.0403 13.5222 46.0041 12.4219 45.8859 11.885C45.7965 11.4787 45.776 11.4306 45.6917 11.4306C45.6252 11.4306 45.3239 12.0382 45.252 12.3171C45.1817 12.5906 44.9087 13.4191 44.873 13.4676C44.8559 13.4907 44.8177 13.5852 44.788 13.6776C44.7581 13.77 44.7008 13.9045 44.6604 13.9764C44.5581 14.1587 44.5136 14.2461 44.4491 14.3916C44.4184 14.4609 44.3598 14.5672 44.3191 14.6277C44.2783 14.6883 44.1832 14.8537 44.1075 14.9953C43.8723 15.436 43.4525 15.9905 43.0309 16.4176C42.6172 16.8367 42.0627 17.3106 41.986 17.3106C41.9626 17.3106 41.9191 17.3399 41.8894 17.3757C41.8597 17.4115 41.7546 17.4776 41.6558 17.5226C41.5571 17.5676 41.4652 17.6221 41.4518 17.6438C41.4274 17.6833 41.3815 17.7096 40.9881 17.9091C40.228 18.2948 39.3289 18.5536 38.2459 18.6987C37.4944 18.7993 36.1375 18.7091 35.4231 18.5108C35.296 18.4755 35.1449 18.4349 35.0871 18.4204C34.9695 18.3911 34.7398 18.3003 34.5872 18.2228C34.5317 18.1946 34.4514 18.1244 34.4087 18.0666C34.3369 17.9693 34.3343 17.9156 34.3723 17.3316C34.4361 16.352 34.4261 15.303 34.3493 14.9253C34.2853 14.6116 34.1078 13.9745 34.0366 13.8036C34.0174 13.7574 33.9893 13.6629 33.9742 13.5936C33.9592 13.5243 33.8915 13.3515 33.8239 13.2096C33.7564 13.0677 33.7011 12.9373 33.7011 12.9198C33.7011 12.8616 33.4771 12.4201 33.3573 12.242C33.2923 12.1454 33.2391 12.0558 33.2391 12.0429C33.2391 11.9904 32.9307 11.6196 32.8871 11.6196C32.8362 11.6196 32.8381 11.6955 32.9114 12.5591C32.9361 12.851 32.9548 13.4393 32.9529 13.8666C32.9485 14.867 32.9046 15.1973 32.6488 16.1556C32.5748 16.4328 32.505 16.7118 32.4939 16.7756C32.2778 16.9853 32.2778 17.4284 32.2117 17.5503C32.1959 17.6132 32.1466 17.7446 32.102 17.8423C32.0575 17.94 32.0211 18.0315 32.0211 18.0456C32.0211 18.0597 31.9856 18.1505 31.9423 18.2475C31.6989 18.7914 31.5729 19.0273 31.4577 19.1547C31.421 19.1951 31.3911 19.2419 31.3911 19.2587C31.3911 19.2755 31.3178 19.3969 31.2281 19.5285C30.8766 20.0442 29.7679 21.0442 29.1934 21.3636C29.0687 21.4329 28.8271 21.5852 28.6564 21.702C28.3623 21.9033 27.9201 22.1404 27.8379 22.1408C27.8171 22.1409 27.71 22.1866 27.5998 22.2426C27.4199 22.3339 26.7904 22.5541 26.5191 22.6205C25.9166 22.7682 25.8042 22.7782 24.7781 22.7755C23.5271 22.7722 23.0182 22.7163 22.3611 22.51C22.2109 22.4628 22.0702 22.4076 22.0482 22.3874C22.0263 22.3672 21.9832 22.3506 21.9525 22.3506C21.8996 22.3506 21.3196 22.0963 21.1851 22.0142C21.1504 21.993 20.9683 21.8992 20.7804 21.8057C20.5924 21.7121 20.4153 21.6075 20.3867 21.5731C20.3461 21.5566 20.0419 21.3495 20.0391 21.3426C19.9386 21.3426 18.9338 20.5517 18.6037 20.2126C18.4003 20.0037 18.3162 19.9595 18.2686 20.0366C18.2557 20.0574 18.3208 20.2222 18.4131 20.4028C18.5055 20.5835 18.5811 20.7489 18.5811 20.7703C18.5811 20.7917 18.6272 20.9056 18.6834 21.0234C18.7398 21.1412 18.815 21.3038 18.8507 21.3846C19.041 21.8159 19.4073 22.3192 19.8545 22.7637C20.0714 22.9793 20.2886 23.1778 20.337 23.2047C20.3854 23.2316 20.6238 23.3906 20.8668 23.5581C21.1097 23.7256 21.3257 23.8626 21.3467 23.8626C21.3677 23.8626 21.4081 23.8905 21.4363 23.9247C21.4646 23.9587 21.5851 24.0344 21.704 24.0928C21.8229 24.1511 21.9745 24.2424 22.0409 24.2955C22.158 24.3894 22.1597 24.3961 22.0966 24.516C21.9977 24.7039 21.2695 25.3746 21.1645 25.3746C21.1483 25.3746 21.0849 25.4101 21.0236 25.4537C20.8188 25.5991 20.6206 25.6962 20.3241 25.7968C20.0573 25.8873 19.9581 25.8968 19.2531 25.8981C18.3676 25.8999 17.9753 25.8447 17.5863 25.6636C17.4433 25.597 17.3112 25.5426 17.2927 25.5426C17.257 25.5426 16.6722 25.2701 16.5651 25.2035C16.5304 25.182 16.4634 25.1476 16.4161 25.1268C16.3688 25.1061 16.2838 25.0403 16.2271 24.9806C16.1705 24.9208 16.1038 24.8717 16.0789 24.8714C16.0541 24.8709 15.9889 24.8229 15.9341 24.7645C15.7987 24.6205 15.5952 24.5218 15.5423 24.5746C15.4854 24.6315 15.5793 24.9302 15.7208 25.1427C15.7827 25.2356 15.8795 25.4061 15.936 25.5216C16.0643 25.7846 16.6521 26.3734 17.0982 26.686C17.2801 26.8134 17.4918 26.9893 17.5688 27.077C17.6962 27.2222 17.7064 27.2533 17.6827 27.4261C17.6684 27.5303 17.6297 27.7115 17.5966 27.8287C17.5637 27.9458 17.5061 28.1644 17.4687 28.3146C17.3899 28.631 17.1491 29.1523 16.9836 29.3646C16.9206 29.4454 16.8269 29.5872 16.7752 29.6796C16.6007 29.9919 15.9638 30.8093 15.6019 31.1855C15.2663 31.5342 14.6033 32.0931 14.5221 32.0958C14.5023 32.0964 14.4119 32.1532 14.3212 32.2218C14.2304 32.2905 14.1388 32.3466 14.1176 32.3466C14.0964 32.3466 14.0289 32.3821 13.9676 32.4257C13.7853 32.555 13.573 32.6656 13.3941 32.7246C13.3017 32.755 13.1671 32.8131 13.0948 32.8536C12.6817 33.0856 11.4278 33.3698 10.5171 33.438C9.79414 33.4922 9.54247 33.4685 8.27533 33.2273C8.08902 33.1919 8.01695 33.1924 7.98133 33.2294C7.94605 33.2662 7.9605 33.2961 8.0387 33.3481C8.09624 33.3864 8.20973 33.4755 8.2907 33.5463C8.37185 33.617 8.54212 33.7278 8.66912 33.7925C8.79613 33.8572 8.99462 33.9639 9.11012 34.0295C9.36137 34.1723 9.66184 34.3206 9.69997 34.3206C9.71509 34.3206 9.787 34.3473 9.85982 34.3801C9.93257 34.4128 10.0583 34.4503 10.1391 34.4635C11.003 34.6038 11.209 34.6169 12.4164 34.6082C13.5841 34.5998 13.6702 34.6044 13.7515 34.6779C13.7992 34.7211 13.9822 35.0465 14.1582 35.401C14.3341 35.7556 14.4941 36.0555 14.5137 36.0676C14.5923 36.1162 14.9139 36.9275 14.9683 37.2143C15.0174 37.4731 14.9532 37.6221 14.7239 37.7809C14.6356 37.8421 14.5094 37.9485 14.4434 38.0174C14.3774 38.0863 14.3016 38.1426 14.2748 38.1426C14.1949 38.1986 13.9157 38.3806 13.923 38.3689C13.8964 38.4011 13.7192 38.5071 13.5294 38.6045C13.3394 38.702 13.1558 38.8049 13.1211 38.8332C12.9324 38.9871 11.8913 39.2962 10.8401 39.5103C10.4172 39.5964 9.29728 39.7074 9.02612 39.6899C8.97992 39.6869 8.70869 39.6688 8.42343 39.6495Z" fill="#18A94B" stroke="#18A94B"/>
<path d="M1.99121 20.0492C1.99121 20.027 2.02145 19.9837 2.05841 19.9531C2.09545 19.9223 2.19214 19.7924 2.27328 19.6643C2.56854 19.1982 3.28347 18.3791 3.56621 18.1828C3.65575 18.1207 3.6345 18.1555 3.49271 18.3029C3.38301 18.4171 3.29321 18.534 3.29321 18.5629C3.29321 18.5917 3.26532 18.6259 3.23122 18.639C3.19711 18.6522 3.04407 18.8501 2.89119 19.0791C2.73822 19.3081 2.58148 19.5189 2.54292 19.5475C2.50428 19.5761 2.44128 19.649 2.40273 19.7094C2.32192 19.8362 1.99121 20.1093 1.99121 20.0492Z" fill="#1F9B4E" stroke="#1F9B4E"/>
<path d="M18.2879 39.1306C18.239 39.0716 17.8421 38.3163 17.6253 37.8696C17.5693 37.7541 17.5057 37.6313 17.4842 37.5966C17.4484 37.5391 17.3774 37.3892 17.2116 37.0209C17.1781 36.9468 17.1339 36.8757 17.1133 36.8629C17.0926 36.8502 16.9598 36.6047 16.8181 36.3176C16.6764 36.0305 16.5188 35.733 16.4679 35.6565C16.2458 35.3232 15.7251 34.1151 15.7251 33.9333C15.7251 33.8171 16.0705 33.4655 16.4851 33.1599C16.9869 32.7899 17.3374 32.4876 17.6781 32.1311C18.1758 31.6104 18.6496 31.0083 18.8185 30.682C18.9005 30.5234 19.0017 30.3369 19.0433 30.2676C19.2652 29.8974 19.3569 29.6647 19.5482 28.9866C19.6135 28.755 20.0754 27.7936 20.1518 27.7302C20.1823 27.7048 20.3375 27.6542 20.4966 27.6173C20.6558 27.5805 20.8239 27.5361 20.8701 27.5185C20.9163 27.5009 21.1498 27.4253 21.389 27.3504C21.8013 27.2213 22.3036 26.9894 22.4484 26.8612C22.4848 26.829 22.5385 26.8026 22.5676 26.8026C22.6592 26.8026 23.6324 25.7922 23.9635 25.3535C24.1378 25.1225 24.3123 24.907 24.3512 24.8746C24.4073 24.8282 24.6477 24.8141 25.5021 24.8073C26.5258 24.7992 27.1598 24.7446 27.252 24.6567C27.2739 24.6357 27.3401 24.6178 27.399 24.6168C27.5704 24.6137 27.8625 24.5217 28.1631 24.3759C28.3166 24.3015 28.4583 24.2405 28.4781 24.2404C28.4979 24.2403 28.6048 24.1942 28.7156 24.138C28.8263 24.0818 28.987 24.0134 29.0726 23.9861C29.1581 23.9587 29.2659 23.9046 29.3121 23.866C29.3583 23.8274 29.4528 23.7689 29.5221 23.7359C29.5914 23.7031 29.7271 23.6236 29.8237 23.5594C29.9203 23.4952 30.0104 23.4426 30.024 23.4426C30.0376 23.4426 30.1287 23.3911 30.2264 23.3282C30.3241 23.2653 30.45 23.189 30.5062 23.1587C30.8395 22.9791 31.6785 22.2029 32.3107 21.4896C33.0103 20.7002 33.1357 20.5402 33.3212 20.2012C33.3676 20.1162 33.4441 20.0346 33.4911 20.0196C33.5722 19.9938 33.8422 20.0582 33.9321 20.1246C33.9552 20.1417 34.0497 20.18 34.1421 20.2098C34.2345 20.2396 34.3668 20.2957 34.4361 20.3345C34.7466 20.5082 35.4291 20.6849 36.3084 20.8192C37.0381 20.9306 38.6859 20.8962 39.3081 20.7566C39.7477 20.6581 40.0335 20.579 40.1545 20.5224C40.2272 20.4885 40.3028 20.4603 40.3225 20.4598C40.3421 20.4595 40.5093 20.3842 40.6941 20.2926C40.8789 20.201 41.0477 20.1257 41.0692 20.1254C41.1283 20.1243 41.9024 19.7432 41.9783 19.6779C42.0882 19.5831 42.4524 19.411 42.5433 19.4108C42.6976 19.4104 42.8008 19.5281 43.0021 19.9338C43.1115 20.1542 43.2169 20.3443 43.2362 20.3563C43.2766 20.3813 43.6969 21.2261 43.6975 21.2835C43.6978 21.3045 43.8299 21.5862 43.9911 21.9096C44.1523 22.233 44.2844 22.5148 44.2847 22.5359C44.2848 22.557 44.4269 22.8616 44.6001 23.2129C44.7733 23.5642 44.9151 23.8638 44.9151 23.8786C44.9151 23.8933 44.9518 23.9857 44.9967 24.0835C45.0415 24.1815 45.1391 24.4412 45.2135 24.6606C45.2879 24.88 45.3669 25.0832 45.389 25.1121C45.493 25.2474 45.3036 25.2975 44.3061 25.3987C43.3636 25.4942 40.3966 26.1155 39.8121 26.3397C39.7325 26.3701 39.4644 26.4499 38.5941 26.702C38.3862 26.7622 38.1594 26.8357 38.0901 26.8654C38.0208 26.8951 37.794 26.9714 37.5861 27.0348C37.3782 27.0983 37.1703 27.164 37.1241 27.1808C37.0779 27.1976 36.8983 27.2539 36.7251 27.3059C36.5519 27.3579 36.3912 27.4147 36.3681 27.4321C36.345 27.4495 36.2505 27.4875 36.1581 27.5166C36.0657 27.5457 35.9712 27.5835 35.9481 27.6005C35.925 27.6175 35.7738 27.6743 35.6121 27.7266C35.4504 27.7789 35.2992 27.8357 35.2761 27.8527C35.253 27.8697 35.1585 27.9075 35.0661 27.9366C34.9737 27.9657 34.8792 28.0035 34.8561 28.0206C34.833 28.0376 34.7385 28.076 34.6461 28.1058C34.5537 28.1356 34.4214 28.1918 34.3521 28.2306C34.2828 28.2694 34.1561 28.3243 34.0706 28.3526C33.985 28.3808 33.8243 28.4498 33.7136 28.506C33.6028 28.5622 33.4946 28.6083 33.4732 28.6084C33.4211 28.6087 31.3309 29.6473 31.1195 29.7781C31.028 29.8347 30.735 29.9933 30.4685 30.1306C30.2021 30.2678 29.9638 30.3969 29.9388 30.4175C29.9139 30.438 29.7322 30.5372 29.535 30.6379C29.3378 30.7385 29.1191 30.8617 29.0488 30.9117C28.9785 30.9617 28.9027 31.0026 28.8803 31.0026C28.8577 31.0026 28.8157 31.0312 28.7867 31.0661C28.7577 31.101 28.6162 31.1859 28.4721 31.2546C28.328 31.3233 28.1865 31.4082 28.1575 31.4431C28.0903 31.4772 27.7027 31.7401 27.6985 31.7335C27.6717 31.7659 27.6038 31.8038 27.5478 31.8179C27.4919 31.832 27.3623 31.9 27.26 31.969C27.1576 32.0381 27.0566 32.0946 27.0354 32.0946C27.0142 32.0946 26.9425 32.1513 26.8761 32.2206C26.8097 32.2899 26.7335 32.3466 26.4695 32.5146C26.4494 32.5146 26.2553 32.6411 26.0383 32.7958C25.8212 32.9505 25.579 33.1159 25.4998 33.1633C25.2942 33.2866 25.1452 33.3892 24.8738 33.5944C24.7427 33.6935 24.6215 33.7746 24.6045 33.7746C24.5628 33.7746 23.5822 34.5206 23.0331 34.97C22.7905 35.1684 22.4451 35.445 22.2655 35.5845C22.0859 35.7239 21.3488 36.4195 20.6275 37.1301C19.9062 37.8409 19.1933 38.533 19.0431 38.6684C18.8929 38.8036 18.7558 38.9377 18.7383 38.9661C18.7002 39.0284 18.4417 39.1926 18.3818 39.1926C18.3585 39.1926 18.3162 39.1647 18.2879 39.1306Z" fill="#18A94B" stroke="#18A94B"/>
<path d="M49.9862 56.913C49.7163 56.8493 49.51 56.7184 49.3089 56.4831C49.2025 56.3585 49.1154 56.2374 49.1154 56.2138C49.1154 56.1902 49.0884 56.1487 49.0556 56.1214C49.0227 56.0941 48.9385 55.953 48.8686 55.808C48.7987 55.663 48.7121 55.52 48.5463 55.2769C48.398 55.1538 48.1914 54.5284 48.1914 54.2025C48.1914 54.1055 48.2282 53.908 48.2731 53.7635C48.3373 53.5573 48.3987 53.4594 48.5589 53.3083C48.8167 53.0648 48.9407 52.8949 49.1628 52.4805C49.2604 52.2986 49.4124 52.0582 49.5008 51.9464C49.5891 51.8346 49.6614 51.7159 49.6614 51.6825C49.6614 51.6493 49.6903 51.611 49.7256 51.5975C49.7975 51.5698 50.1342 51.0667 50.2231 50.8539C50.255 50.7778 50.3369 50.6508 50.4053 50.5716C50.4739 50.4924 50.5728 50.3404 50.6253 50.2336C50.6842 50.1141 50.7472 50.0415 50.7894 50.0446C50.8402 50.0484 50.8641 50.0007 50.8821 49.8607C50.8953 49.7568 50.9385 49.5797 50.9779 49.4673C51.0263 49.3296 51.0362 49.2467 51.0082 49.2129C50.9786 49.1773 51.0031 49.1414 51.093 49.0882C51.1637 49.0465 51.2157 48.9827 51.2109 48.9436C51.1991 48.8475 51.2761 48.6723 51.3613 48.6016C51.4001 48.5693 51.4781 48.452 51.5344 48.3409C51.5907 48.2296 51.6621 48.1387 51.6932 48.1387C51.7501 48.1387 51.9714 47.756 51.9714 47.6574C51.9714 47.6281 52.0092 47.5559 52.0554 47.4972C52.1016 47.4384 52.1394 47.3398 52.1394 47.2779C52.1394 47.1976 52.2114 47.0903 52.3914 46.9029C52.53 46.7586 52.6434 46.6259 52.6434 46.6081C52.6434 46.5903 52.6916 46.5185 52.7507 46.4483C52.8097 46.3782 52.847 46.2928 52.8338 46.2583C52.8206 46.2239 52.8574 46.1333 52.9156 46.057C52.9738 45.9807 53.0214 45.8965 53.0214 45.8698C53.0214 45.7931 53.2676 45.4708 53.4024 45.371C53.4701 45.3211 53.5254 45.2635 53.5254 45.2432C53.5254 45.187 53.7457 44.8627 53.7838 44.8627C53.8022 44.8627 53.8446 44.8097 53.878 44.7452C53.9115 44.6806 54.0115 44.5526 54.1006 44.461C54.1894 44.3693 54.2855 44.2165 54.3141 44.1213C54.3472 44.0107 54.396 43.9404 54.4494 43.9265C54.4954 43.9145 54.5439 43.8698 54.5573 43.8272C54.589 43.7255 54.6151 43.6837 54.7595 43.5017C54.8273 43.4161 54.8967 43.2618 54.9174 43.1504C54.9376 43.041 54.993 42.8988 55.0404 42.8342C55.0879 42.7697 55.1307 42.6752 55.1356 42.6242C55.1589 42.384 55.3698 42.2587 55.7514 42.2587C56.0499 42.2587 56.2489 42.3414 56.4009 42.5288C56.542 42.7029 57.2752 44.1588 57.3277 44.3696C57.4058 44.4875 57.4528 44.7162 57.4806 44.7691C57.5079 44.7964 57.5314 44.9457 57.5331 45.103C57.5367 45.4038 57.5278 45.428 57.1876 46.0597C57.1004 46.2214 56.9834 46.4671 56.9275 46.6057C56.8715 46.7443 56.7729 46.936 56.7086 47.0317C56.6442 47.1275 56.5914 47.2238 56.5914 47.2457C56.5161 47.3383 56.2829 47.7029 56.2554 47.7335C56.2554 47.7575 56.2111 47.8442 56.1568 47.9264C55.8754 48.3523 55.7514 48.5558 55.7514 48.5922C55.7514 48.6143 55.7228 48.6561 55.6879 48.6851C55.653 48.7141 55.5682 48.8556 55.4994 48.9997C55.4306 49.1437 55.3459 49.2853 55.3109 49.3142C55.276 49.3432 55.2474 49.3905 55.2474 49.4192C55.2474 49.4479 55.212 49.5164 55.1687 49.5715C55.1255 49.6266 55.0255 49.7945 54.9464 49.9447C54.8674 50.0949 54.7516 50.2976 54.6891 50.3953C54.6266 50.4931 54.5754 50.5842 54.5754 50.5978C54.5754 50.6114 54.5187 50.705 54.4494 50.8057C54.3801 50.9064 54.3234 51.0009 54.3234 51.0157C54.3234 51.0305 54.2667 51.125 54.1974 51.2257C54.1281 51.3264 54.0714 51.4261 54.0714 51.4473C53.9738 51.5686 53.6984 52.0018 53.6703 52.0463C53.6345 52.0761 53.5693 52.1792 53.5254 52.2757C53.4815 52.3721 53.4163 52.4753 53.256 52.7134C53.2234 52.7498 53.1107 52.9459 53.0056 53.1491C52.9004 53.3523 52.78 53.5696 52.7379 53.6321C52.6958 53.6945 52.6343 53.8024 52.6012 53.8717C52.5681 53.941 52.4919 54.0733 52.4319 54.1657C52.3719 54.2581 52.2881 54.4093 52.2456 54.5017C52.2032 54.5941 52.1241 54.7281 52.0699 54.7996C52.0158 54.8711 51.9714 54.9438 51.9714 54.9611C51.9714 54.9785 51.9359 55.0429 51.8925 55.1042C51.8491 55.1655 51.705 55.428 51.5721 55.6876C51.4393 55.9471 51.3046 56.1809 51.273 56.2071C51.2413 56.2335 51.2154 56.2766 51.2154 56.303C51.2154 56.3908 50.8309 56.7923 50.6666 56.8761C50.4957 56.9633 50.2552 56.9763 49.9862 56.913Z" fill="#18A94B" stroke="#18A94B"/>
<path d="M43.8546 59.0801C43.4085 58.9574 43.1456 58.786 42.555 58.2327C41.4735 57.2192 40.5341 56.3077 39.6403 55.4046C38.4081 54.1596 38.2502 54.0028 37.2766 53.0612C35.9368 51.7652 35.0455 50.7627 34.8041 50.28C34.6031 49.8784 34.5705 49.4132 34.7126 48.975C34.851 48.549 35.15 48.0966 35.2936 48.0966C35.3964 48.0966 36.31 47.1222 36.2976 47.0256C36.2839 46.9192 36.3345 46.8366 36.4131 46.8366C36.5206 46.8366 37.5233 45.9958 37.5233 45.9058C37.5233 45.7658 38.0999 45.1381 39.3832 43.8808C40.1967 43.0839 41.2875 42.0124 41.8073 41.4997C42.6562 40.6623 43.1799 40.191 43.4236 40.0449C43.6771 39.8931 44.088 39.7806 44.3886 39.7806C44.6581 39.7807 45.237 39.8819 45.4306 39.9628C45.7974 40.1162 46.3859 40.7071 46.663 41.2004C46.8793 41.5855 46.9578 42.3035 46.8252 42.6838C46.7304 42.9559 46.6467 43.1225 46.575 43.182C46.5561 43.2246 46.3506 43.5275 46.3433 43.5465C46.3433 43.6239 42.9372 47.0221 41.6775 48.2016C41.2485 48.6032 40.6313 49.3324 40.6313 49.4375C40.6313 49.676 41.4511 50.5934 42.745 51.8027C43.3446 52.3632 43.9392 52.9444 44.0664 53.0946C44.1935 53.2448 44.7118 53.7723 45.2182 54.2669C46.2354 55.2605 46.4884 55.5593 46.6798 55.9926C46.7257 56.0965 46.7827 56.2153 46.8064 56.2565C46.8765 56.3779 46.9062 57.0802 46.852 57.3329C46.7561 57.7799 46.3527 58.4579 46.0425 58.693C45.8769 58.8186 45.4278 59.0292 45.1834 59.0956C44.952 59.1586 44.1038 59.1488 43.8546 59.0801Z" fill="#18A94B" stroke="#18A94B"/>
<path d="M60.8964 59.1157C60.0321 58.9917 59.6126 58.6887 59.1851 57.8798C58.9413 57.4187 58.8834 57.1966 58.8848 56.7277C58.886 56.3461 58.8982 56.2818 59.0184 56.0242C59.0911 55.8682 59.2274 55.639 59.3212 55.5147C59.4151 55.3905 60.391 54.4124 61.4899 53.3412C63.1948 51.6793 63.51 51.3899 63.6382 51.3676C63.7455 51.3489 63.8432 51.2825 63.9805 51.135C64.8561 50.1931 65.2425 49.7175 65.243 49.5811C65.2437 49.4072 65.0515 49.1243 64.6764 48.7474C64.1843 48.2531 61.8634 46.003 61.2934 45.4676C60.7506 44.9579 59.563 43.7064 59.5238 43.6028C59.5081 43.5614 59.4744 43.5142 59.4487 43.4984C59.423 43.4826 59.3563 43.4003 59.3002 43.3157C59.2443 43.231 59.141 43.0805 59.0707 42.9814C58.9189 42.7671 58.8617 42.5466 58.8604 42.1695C58.8589 41.7443 58.8901 41.648 59.0694 41.5237C59.1715 41.453 59.2367 41.3697 59.2527 41.2896C59.2685 41.2109 59.3143 41.1513 59.3775 41.1273C59.4325 41.1064 59.5227 41.0282 59.5779 40.9538C59.6332 40.8792 59.7588 40.7364 59.8569 40.6362C59.955 40.536 60.0354 40.4353 60.0354 40.4124C60.0354 40.3896 60.0921 40.3415 60.1614 40.3057C60.2458 40.2621 60.2874 40.2087 60.2874 40.1443C60.2874 39.9898 60.548 39.8718 60.9905 39.826C61.7918 39.7431 61.968 39.8416 63.5891 41.2772C64.0503 41.6857 66.4534 44.0249 68.0949 45.6633C68.6402 46.2075 69.2282 46.7641 69.4014 46.9001C69.7707 47.1898 70.4514 47.8677 70.4514 47.9456C70.5267 48.0665 70.7599 48.4108 70.7874 48.4436C70.7874 48.4655 70.8449 48.5687 70.9152 48.6728C71.067 48.8979 71.1654 49.2461 71.1654 49.559C71.1654 49.8499 71.0555 50.2771 70.952 50.3884C70.9077 50.4361 70.8712 50.4927 70.871 50.5144C70.8701 50.6016 69.9289 51.5669 67.5114 53.9598C66.1138 55.3432 64.5073 56.9392 63.9414 57.5064C63.3755 58.0737 62.8273 58.5943 62.7234 58.6635C62.6195 58.7326 62.3643 58.8633 62.1564 58.9539C61.8178 59.1014 61.739 59.1194 61.4004 59.1262C61.1925 59.1303 60.9657 59.1256 60.8964 59.1157Z" fill="#18A94B" stroke="#18A94B"/>
<path d="M48.5722 53.1656C48.6977 52.9852 48.8385 52.7678 48.8853 52.6826C48.9321 52.5973 49.0219 52.4476 49.0848 52.3499C49.1477 52.2522 49.1992 52.1593 49.1992 52.1432C49.1992 52.1273 49.2251 52.0843 49.2568 52.0479C49.2884 52.0115 49.3661 51.8871 49.4295 51.7716C49.6444 51.3797 49.7613 51.1839 49.8584 51.0537C49.9116 50.9822 49.9552 50.9094 49.9552 50.8917C49.9552 50.8742 50.0119 50.7758 50.0812 50.6731C50.1505 50.5704 50.2072 50.4759 50.2072 50.4631C50.2072 50.4503 50.2639 50.3558 50.3332 50.2531C50.4025 50.1504 50.4592 50.0559 50.4592 50.0431C50.4592 50.0303 50.5159 49.9358 50.5852 49.8331C50.6545 49.7304 50.7112 49.6308 50.7112 49.6116C50.7112 49.5925 50.7399 49.5531 50.775 49.5239C50.8101 49.4949 50.8695 49.4063 50.9069 49.3274C51.0092 49.112 51.0647 49.2194 50.9784 49.4655C50.9386 49.5789 50.8951 49.7567 50.8819 49.8606C50.8639 50.0006 50.84 50.0483 50.7892 50.0446C50.747 50.0415 50.684 50.114 50.6251 50.2336C50.5726 50.3403 50.4737 50.4924 50.4051 50.5715C50.3367 50.6507 50.2548 50.7777 50.2229 50.8538C50.1341 51.0666 49.7973 51.5698 49.7254 51.5974C49.6901 51.6109 49.6612 51.6492 49.6612 51.6825C49.6612 51.7158 49.5889 51.8345 49.5006 51.9463C49.4122 52.0581 49.2602 52.2985 49.1626 52.4805C48.9642 52.8508 48.8216 53.0555 48.633 53.2416C48.3673 53.5034 48.3512 53.4834 48.5722 53.1656Z" fill="#1F9B4E" stroke="#1F9B4E"/>
<path d="M36.4315 46.7736C36.4604 46.7388 36.7881 46.4223 37.1599 46.0701C37.699 45.5593 37.8041 45.4744 37.6796 45.6502C37.5937 45.7716 37.5234 45.8857 37.5234 45.9038C37.5234 45.9878 36.5254 46.8367 36.4266 46.8367C36.3934 46.8367 36.3949 46.8177 36.4315 46.7736Z" fill="#1F9B4E" stroke="#1F9B4E"/>
<path d="M53.1475 45.599C53.1475 45.5891 53.2042 45.4968 53.2735 45.3941C53.3428 45.2915 53.3995 45.1928 53.3995 45.1749C53.3995 45.157 53.4259 45.1124 53.4583 45.0759C53.4906 45.0395 53.5803 44.8945 53.6578 44.7537C53.7351 44.613 53.851 44.4187 53.9153 44.3219C53.9796 44.2252 54.0706 44.0723 54.1176 43.9822C54.1645 43.8921 54.2301 43.7959 54.3908 43.557C54.4279 43.5263 54.4753 43.4625 54.4962 43.4153C54.5172 43.3682 54.609 43.2162 54.7002 43.0776C54.7914 42.939 54.8963 42.7665 54.933 42.6943C55.009 42.5455 55.2055 42.3455 55.132 42.6095C55.132 42.6646 55.092 42.7642 55.0431 42.8308C54.9942 42.8972 54.9377 43.041 54.9174 43.1504C54.8968 43.2618 54.8274 43.4161 54.7595 43.5017C54.6151 43.6837 54.5891 43.7254 54.5573 43.8272C54.544 43.8698 54.4954 43.9144 54.4495 43.9265C54.396 43.9404 54.3472 44.0107 54.3141 44.1213C54.2856 44.2165 54.1895 44.3693 54.1006 44.461C54.0116 44.5526 53.9115 44.6805 53.8781 44.7451C53.8447 44.8097 53.8007 44.8626 53.7805 44.8626C53.7479 44.8626 53.5753 45.1094 53.5308 45.2196C53.5119 45.2668 53.1475 45.6274 53.1475 45.599Z" fill="#1F9B4E" stroke="#1F9B4E"/>
<path d="M51.3833 48.5392C51.3833 48.5137 51.5799 48.1605 51.705 47.961C51.759 47.8749 51.8033 47.7926 51.8033 47.7781C51.8033 47.7636 51.8562 47.6735 51.9208 47.5778C51.9854 47.4821 52.0545 47.3659 52.0743 47.3197C52.1066 47.2443 52.1121 47.2433 52.1279 47.3092C52.1375 47.3496 52.1062 47.4324 52.0584 47.4933C52.0104 47.5542 51.9713 47.6282 51.9713 47.6575C51.9713 47.7561 51.75 48.1387 51.6931 48.1387C51.662 48.1387 51.5888 48.2332 51.5303 48.3487C51.437 48.5328 51.3833 48.6025 51.3833 48.5392Z" fill="#1F9B4E" stroke="#1F9B4E"/>
<path d="M52.3129 46.8882C52.3677 46.7894 52.4834 46.6142 52.57 46.4988C52.6566 46.3834 52.7275 46.2733 52.7275 46.2543C52.8513 46.0579 52.8793 46.1522 52.834 46.2584C52.8472 46.2927 52.8097 46.3782 52.7507 46.4483C52.6917 46.5184 52.6435 46.5927 52.6435 46.6133C52.6435 46.6339 52.5467 46.7446 52.4284 46.8592L52.2134 47.0676L52.3129 46.8882Z" fill="#1F9B4E" stroke="#1F9B4E"/>
<path d="M51.0811 49.0204C51.1571 48.8869 51.2153 48.8575 51.2153 48.9528C51.2153 48.9848 51.169 49.0412 51.1126 49.0784L51.0098 49.1457L51.0811 49.0204Z" fill="#1F9B4E" stroke="#1F9B4E"/>
<path d="M35.1161 48.1824C35.1955 48.0316 36.2064 46.9626 36.2696 46.9626C36.2894 46.9626 36.3055 46.9963 36.3055 47.0375C36.3055 47.1322 35.3788 48.0966 35.2879 48.0966C35.2508 48.0966 35.1797 48.1486 35.13 48.2121L35.0396 48.3276L35.1161 48.1824Z" fill="#1F9B4E" stroke="#1F9B4E"/>
<path d="M63.5442 51.3382C63.5661 51.3193 63.877 51.0419 64.2351 50.7217C64.5932 50.4015 64.801 50.2326 64.6971 50.3464C64.5932 50.4603 64.4405 50.6291 64.3577 50.7215C63.9017 51.2316 63.7429 51.3726 63.6241 51.3726C63.5575 51.3726 63.522 51.3573 63.5442 51.3382Z" fill="#1F9B4E" stroke="#1F9B4E"/>
</svg>
