<svg width="84" height="106" viewBox="0 0 84 106" fill="none" xmlns="http://www.w3.org/2000/svg">
<path d="M10.5 0H73.5C76.2848 0 78.9555 1.11678 80.9246 3.10467C82.8938 5.09255 84 7.78871 84 10.6V95.4C84 98.2113 82.8938 100.907 80.9246 102.895C78.9555 104.883 76.2848 106 73.5 106H10.5C7.71523 106 5.04451 104.883 3.07538 102.895C1.10625 100.907 0 98.2113 0 95.4V10.6C0 7.78871 1.10625 5.09255 3.07538 3.10467C5.04451 1.11678 7.71523 0 10.5 0ZM45.9375 60.95C60.375 60.95 64.26 50.191 65.2575 44.52C70.035 42.983 73.5 38.478 73.5 33.125C73.5 26.5 68.25 21.2 61.6875 21.2C55.125 21.2 49.875 26.5 49.875 33.125C49.875 38.107 52.8675 42.4 57.1725 44.149C56.0175 47.7 52.5 53 42 53C34.755 53 29.715 54.855 26.25 57.452V36.411C30.8175 34.768 34.125 30.369 34.125 25.175C34.125 18.55 28.875 13.25 22.3125 13.25C15.75 13.25 10.5 18.55 10.5 25.175C10.5 30.369 13.8075 34.768 18.375 36.411V69.589C13.8075 71.232 10.5 75.631 10.5 80.825C10.5 87.45 15.75 92.75 22.3125 92.75C28.875 92.75 34.125 87.45 34.125 80.825C34.125 75.896 31.185 71.55 26.9325 69.854C28.4025 66.25 32.7075 60.95 45.9375 60.95ZM22.3125 76.85C23.3568 76.85 24.3583 77.2688 25.0967 78.0143C25.8352 78.7597 26.25 79.7708 26.25 80.825C26.25 81.8792 25.8352 82.8903 25.0967 83.6358C24.3583 84.3812 23.3568 84.8 22.3125 84.8C21.2682 84.8 20.2667 84.3812 19.5283 83.6358C18.7898 82.8903 18.375 81.8792 18.375 80.825C18.375 79.7708 18.7898 78.7597 19.5283 78.0143C20.2667 77.2688 21.2682 76.85 22.3125 76.85ZM22.3125 21.2C23.3568 21.2 24.3583 21.6188 25.0967 22.3643C25.8352 23.1097 26.25 24.1208 26.25 25.175C26.25 26.2292 25.8352 27.2403 25.0967 27.9858C24.3583 28.7312 23.3568 29.15 22.3125 29.15C21.2682 29.15 20.2667 28.7312 19.5283 27.9858C18.7898 27.2403 18.375 26.2292 18.375 25.175C18.375 24.1208 18.7898 23.1097 19.5283 22.3643C20.2667 21.6188 21.2682 21.2 22.3125 21.2ZM61.6875 29.15C62.7318 29.15 63.7333 29.5688 64.4717 30.3143C65.2102 31.0597 65.625 32.0708 65.625 33.125C65.625 34.1792 65.2102 35.1903 64.4717 35.9357C63.7333 36.6812 62.7318 37.1 61.6875 37.1C60.6432 37.1 59.6417 36.6812 58.9033 35.9357C58.1648 35.1903 57.75 34.1792 57.75 33.125C57.75 32.0708 58.1648 31.0597 58.9033 30.3143C59.6417 29.5688 60.6432 29.15 61.6875 29.15Z" fill="#14A54A"/>
</svg>
